<?xml version="1.0" encoding="UTF-8"?>
<svg version="1.1" xmlns="http://www.w3.org/2000/svg" width="999" height="249">
<path d="M0 0 C8.16663198 7.26180628 13.385112 16.68863441 16.9375 26.875 C17.28683594 27.84179688 17.63617188 28.80859375 17.99609375 29.8046875 C24.21420682 50.08450854 22.70758465 77.59818028 13.9375 96.875 C12.10651177 100.01512232 10.13194146 102.97833728 7.9375 105.875 C9.50333596 109.91221561 12.37923865 112.34570582 15.5625 115.125 C16.078125 115.58390625 16.59375 116.0428125 17.125 116.515625 C18.3909602 117.64092296 19.66357942 118.75872177 20.9375 119.875 C19.73368552 122.36861571 18.48321278 124.55643083 16.9375 126.875 C16.2775 126.875 15.6175 126.875 14.9375 126.875 C14.9375 127.535 14.9375 128.195 14.9375 128.875 C14.2775 128.875 13.6175 128.875 12.9375 128.875 C12.9375 129.535 12.9375 130.195 12.9375 130.875 C12.2775 130.875 11.6175 130.875 10.9375 130.875 C10.69 131.49375 10.4425 132.1125 10.1875 132.75 C8.71702822 135.24980203 7.52346924 135.70816022 4.9375 136.875 C4.28523438 136.19953125 3.63296875 135.5240625 2.9609375 134.828125 C2.08695312 133.93609375 1.21296875 133.0440625 0.3125 132.125 C-0.54601562 131.24328125 -1.40453125 130.3615625 -2.2890625 129.453125 C-5.16646367 126.77835771 -7.51646313 124.59456059 -11.0625 122.875 C-13.82678515 123.55823601 -15.70405574 124.25003313 -18.1875 125.5 C-19.52093949 126.09710144 -20.85825557 126.68561745 -22.19921875 127.265625 C-23.18414307 127.69198242 -23.18414307 127.69198242 -24.18896484 128.12695312 C-39.92403667 134.4094994 -60.08962082 131.45286557 -75.515625 125.5546875 C-91.44505876 118.08010704 -102.40605091 105.95994726 -109.0625 89.875 C-116.65522532 66.98557533 -115.24020993 37.88577471 -104.5 16.3125 C-95.81619115 1.38244269 -82.90339702 -8.06169387 -66.60546875 -13.21484375 C-42.71624172 -19.35176756 -19.9043131 -13.81115603 0 0 Z M-73.0625 21.875 C-83.77929563 36.33416871 -84.62171382 54.29567858 -82.3125 71.625 C-80.19898104 83.486586 -75.59806386 92.03527991 -65.91015625 99.54296875 C-59.32534549 103.85279691 -53.27430659 105.20647745 -45.5 105.125 C-44.3872168 105.13660156 -44.3872168 105.13660156 -43.25195312 105.1484375 C-39.07196582 105.13354885 -35.88040972 104.78017475 -32.0625 102.875 C-33.60376354 99.01743754 -36.00768267 96.93223851 -39.125 94.25 C-43.96527778 90.06944444 -43.96527778 90.06944444 -45.0625 87.875 C-44.25039062 87.56949219 -44.25039062 87.56949219 -43.421875 87.2578125 C-40.11874474 85.32187192 -37.82127153 82.58800664 -35.3125 79.75 C-34.80589844 79.18667969 -34.29929688 78.62335938 -33.77734375 78.04296875 C-32.53365468 76.65848469 -31.29733695 75.26738512 -30.0625 73.875 C-29.0725 74.74125 -28.0825 75.6075 -27.0625 76.5 C-23.20059292 79.81697541 -19.16802994 82.86783262 -15.0625 85.875 C-7.39686582 74.04372708 -7.59088464 57.79240785 -9.6015625 44.2421875 C-12.52520772 31.68015144 -17.72044961 21.23451819 -28.71875 14.1015625 C-43.23532964 6.50455249 -62.2359516 9.69804341 -73.0625 21.875 Z " fill="#FDFDFD" transform="translate(219.0625,71.125)"/>
<path d="M0 0 C12.66599781 10.27297224 19.76192565 22.3356578 22.37451172 38.53369141 C23.33320797 52.89075228 18.53562908 68.82899725 9.28857422 79.76806641 C8.67755859 80.43322266 8.06654297 81.09837891 7.43701172 81.78369141 C6.88787109 82.38697266 6.33873047 82.99025391 5.77294922 83.61181641 C-7.57657003 96.66729338 -24.70421303 99.17611263 -42.55297852 99.15527344 C-49.58388653 99.00931138 -55.28691948 98.10814369 -61.56298828 94.78369141 C-62.46791016 94.35958984 -63.37283203 93.93548828 -64.30517578 93.49853516 C-78.49318538 86.44383232 -89.15820438 74.66202911 -94.56298828 59.78369141 C-98.67996156 45.74264568 -97.64111028 31.32581094 -91.27783203 18.11572266 C-83.35527128 3.8815954 -71.48434238 -5.18110175 -56.19580078 -10.52490234 C-36.97394467 -15.5727785 -15.73421059 -12.24427322 0 0 Z " fill="#F9D469" transform="translate(348.56298828125,109.21630859375)"/>
<path d="M0 0 C1.43352212 0.00015908 2.86704998 0.00585132 4.30053711 0.01586914 C5.43041298 0.01799156 5.43041298 0.01799156 6.58311462 0.02015686 C8.99807646 0.02577163 11.41294687 0.03832656 13.82788086 0.05102539 C15.46134307 0.05603849 17.09480672 0.06060173 18.72827148 0.06469727 C22.74067671 0.07574585 26.75301326 0.09302033 30.76538086 0.11352539 C39.6474404 23.03817069 47.79594379 46.21860101 55.84057617 69.44799805 C57.32803805 73.73524958 58.82749556 78.01828265 60.32788086 82.30102539 C60.75556763 83.52208984 60.75556763 83.52208984 61.19189453 84.76782227 C61.76336176 86.39919303 62.33489474 88.03054077 62.90649414 89.66186523 C63.77524976 92.1416958 64.64346651 94.62171433 65.51147461 97.10180664 C65.9460498 98.34341553 65.9460498 98.34341553 66.3894043 99.61010742 C66.96971525 101.26855462 67.54979635 102.92708226 68.12963867 104.58569336 C69.64398492 108.91617732 71.16362292 113.24470712 72.69116211 117.57055664 C73.00698242 118.46709961 73.32280273 119.36364258 73.64819336 120.28735352 C74.24938381 121.99367346 74.85214212 123.69944215 75.45678711 125.40454102 C75.86670898 126.56953125 75.86670898 126.56953125 76.28491211 127.75805664 C76.52314697 128.43199463 76.76138184 129.10593262 77.00683594 129.80029297 C78.01568163 132.87683398 78.87590893 136.00037362 79.76538086 139.11352539 C68.87538086 139.11352539 57.98538086 139.11352539 46.76538086 139.11352539 C42.21153471 126.59044847 42.21153471 126.59044847 40.51538086 120.61352539 C40.01264648 118.86555664 40.01264648 118.86555664 39.49975586 117.08227539 C38.76538086 114.11352539 38.76538086 114.11352539 38.76538086 111.11352539 C21.93538086 111.11352539 5.10538086 111.11352539 -12.23461914 111.11352539 C-12.89461914 114.41352539 -13.55461914 117.71352539 -14.23461914 121.11352539 C-15.19859997 123.99779694 -16.18266309 126.7934906 -17.29711914 129.61352539 C-17.56588867 130.31477539 -17.8346582 131.01602539 -18.11157227 131.73852539 C-19.07619313 134.24028525 -20.03478275 136.7138526 -21.23461914 139.11352539 C-31.46461914 139.11352539 -41.69461914 139.11352539 -52.23461914 139.11352539 C-49.98481376 128.98940119 -49.98481376 128.98940119 -48.40625 124.63916016 C-48.055056 123.66266006 -47.703862 122.68615997 -47.34202576 121.68006897 C-46.96498001 120.64877365 -46.58793427 119.61747833 -46.19946289 118.55493164 C-45.60313805 116.90194313 -45.60313805 116.90194313 -44.99476624 115.21556091 C-43.72571628 111.70048845 -42.44931911 108.18814379 -41.17211914 104.67602539 C-39.51200651 100.09491818 -37.85506709 95.51266995 -36.19946289 90.92993164 C-35.78832245 89.7931044 -35.37718201 88.65627716 -34.95358276 87.48500061 C-31.66594521 78.37006962 -28.4721265 69.22454169 -25.32469177 60.06031799 C-21.79134243 49.77626014 -18.0989247 39.55139748 -14.39477539 29.32788086 C-13.15611973 25.89603313 -11.92869553 22.46030997 -10.70336914 19.02368164 C-10.29022461 17.86747314 -9.87708008 16.71126465 -9.45141602 15.52001953 C-8.65374131 13.28688246 -7.85809516 11.05301951 -7.06469727 8.81835938 C-6.70827148 7.82263916 -6.3518457 6.82691895 -5.98461914 5.80102539 C-5.51282227 4.47651367 -5.51282227 4.47651367 -5.03149414 3.12524414 C-3.75156423 -0.10595148 -3.72449288 0.13071848 0 0 Z M12.76538086 34.11352539 C12.46470703 35.0531311 12.46470703 35.0531311 12.15795898 36.01171875 C11.54732915 37.91993699 10.93664675 39.82813842 10.32592773 41.73632812 C9.61331092 43.96358377 8.90107718 46.19096201 8.18920898 48.41845703 C6.28600948 54.3718089 4.37628676 60.32291836 2.45288086 66.26977539 C2.08614258 67.40680908 1.7194043 68.54384277 1.34155273 69.71533203 C0.6316343 71.91578927 -0.08055634 74.11551491 -0.79516602 76.31445312 C-1.11549805 77.30904541 -1.43583008 78.3036377 -1.76586914 79.32836914 C-2.05010742 80.20614014 -2.3343457 81.08391113 -2.62719727 81.98828125 C-3.32622203 84.06563424 -3.32622203 84.06563424 -3.23461914 86.11352539 C7.65538086 86.11352539 18.54538086 86.11352539 29.76538086 86.11352539 C27.90658165 79.29792828 26.04302944 72.50295135 24.01538086 65.73852539 C23.7651416 64.90289062 23.51490234 64.06725586 23.25708008 63.20629883 C20.30188875 53.44021589 17.0487737 43.77331985 13.76538086 34.11352539 C13.43538086 34.11352539 13.10538086 34.11352539 12.76538086 34.11352539 Z " fill="#FDFDFD" transform="translate(752.234619140625,58.886474609375)"/>
<path d="M0 0 C9.9 0 19.8 0 30 0 C32.57064911 9.18088968 34.76556292 18.30790024 36.51660156 27.68066406 C37.31186029 31.86130683 38.23433742 35.95082677 39.39624023 40.04589844 C41.05115088 46.04877679 42.39457956 52.09788379 43.6875 58.1875 C43.91244141 59.23486328 44.13738281 60.28222656 44.36914062 61.36132812 C44.91546896 63.90698571 45.45904881 66.45319539 46 69 C46.10387024 68.44084396 46.20774048 67.88168793 46.3147583 67.30558777 C47.41563175 61.38184911 48.51970901 55.45871347 49.62548828 49.53588867 C50.03545746 47.33779359 50.44466213 45.13955575 50.85302734 42.94116211 C52.89336879 31.95991408 54.95323465 20.98497083 57.234375 10.05078125 C57.39842834 9.25842575 57.56248169 8.46607025 57.73150635 7.64970398 C58.87672089 2.24655823 58.87672089 2.24655823 60 0 C69.24 0 78.48 0 88 0 C91.07459516 11.91922652 93.69913309 23.87139895 96.125 35.9375 C96.64725562 38.51944062 97.17054743 41.1011678 97.69454956 43.68275452 C98.01635278 45.26977646 98.3370253 46.85702834 98.65628052 48.44456482 C99.57503015 52.99437881 100.55956333 57.5227172 101.61373901 62.04322815 C102.07716559 64.39091563 102.15392061 66.61423058 102 69 C102.66 69 103.32 69 104 69 C104.11085938 67.7521875 104.22171875 66.504375 104.3359375 65.21875 C104.97190552 59.52827658 106.2806594 54.05865586 107.625 48.5 C109.47900839 40.68236997 111.26602602 32.85865369 112.91796875 24.99609375 C113.15561951 23.86507736 113.15561951 23.86507736 113.39807129 22.71121216 C114.18061015 18.97670935 114.9562893 15.24085593 115.72705078 11.50390625 C116.01199508 10.1367085 116.29698623 8.76952051 116.58203125 7.40234375 C116.83186768 6.19054443 117.0817041 4.97874512 117.33911133 3.73022461 C118 1 118 1 119 0 C121.07262076 -0.08767112 123.14820294 -0.10695873 125.22265625 -0.09765625 C126.48271484 -0.09443359 127.74277344 -0.09121094 129.04101562 -0.08789062 C130.38151109 -0.07953403 131.72200588 -0.07106907 133.0625 -0.0625 C134.40689942 -0.0574866 135.7513006 -0.05292342 137.09570312 -0.04882812 C140.39717941 -0.03699488 143.69856803 -0.02050971 147 0 C146.30937914 6.26803999 144.67584304 12.1358428 142.9375 18.1875 C142.62659424 19.28336426 142.31568848 20.37922852 141.99536133 21.50830078 C141.00147161 25.00685203 140.00108245 28.50350085 139 32 C138.36952526 34.21216367 137.73931383 36.42440241 137.109375 38.63671875 C135.80619507 43.20951977 134.49816916 47.78090283 133.1875 52.3515625 C131.80023487 57.19286091 130.42176276 62.03651421 129.05131531 66.88259888 C128.15272074 70.05921574 127.25156364 73.23510335 126.35025024 76.41094971 C125.91316976 77.95354172 125.47725064 79.49646334 125.04257202 81.03973389 C124.43121964 83.20967192 123.81563298 85.3783703 123.19921875 87.546875 C122.84690186 88.79307617 122.49458496 90.03927734 122.1315918 91.32324219 C120.91711842 95.26929807 119.44968926 99.13416197 118 103 C108.43 103 98.86 103 89 103 C83.58354374 80.0842235 78.76829692 57.05791679 74 34 C70.31938387 48.0276068 67.32521694 62.19190292 64.3125 76.375 C63.3325183 80.98764524 62.34899912 85.59951511 61.36328125 90.2109375 C61.14037918 91.2659848 60.91747711 92.3210321 60.68782043 93.40805054 C60.37695747 94.86194687 60.37695747 94.86194687 60.05981445 96.34521484 C59.87868607 97.19852386 59.69755768 98.05183289 59.51094055 98.93099976 C59 101 59 101 58 103 C48.43 103 38.86 103 29 103 C27.02610501 96.2383597 25.05317702 89.47645009 23.08251953 82.71386719 C22.35473303 80.21700472 21.62653619 77.72026182 20.89794922 75.22363281 C16.68365307 60.78203808 12.49896888 46.33412096 8.46850586 31.83984375 C7.07759294 26.838956 5.67274794 21.84293961 4.234375 16.85546875 C3.81224731 15.39101318 3.81224731 15.39101318 3.3815918 13.89697266 C2.84888491 12.05353691 2.31400812 10.21072635 1.77661133 8.36865234 C1.54224365 7.55734863 1.30787598 6.74604492 1.06640625 5.91015625 C0.85959229 5.19996338 0.65277832 4.48977051 0.43969727 3.75805664 C0 2 0 2 0 0 Z " fill="#FDFDFD" transform="translate(378,95)"/>
<path d="M0 0 C0.93392578 0.56847656 0.93392578 0.56847656 1.88671875 1.1484375 C2.51964844 1.50679688 3.15257812 1.86515625 3.8046875 2.234375 C5.51171875 3.2734375 5.51171875 3.2734375 7.88671875 5.1484375 C7.88671875 5.8084375 7.88671875 6.4684375 7.88671875 7.1484375 C8.54671875 7.1484375 9.20671875 7.1484375 9.88671875 7.1484375 C11.32421875 9.0546875 11.32421875 9.0546875 12.88671875 11.6484375 C13.40234375 12.48375 13.91796875 13.3190625 14.44921875 14.1796875 C17.43182904 20.33942614 18.18421228 26.353173 18.11376953 33.125 C18.11406158 33.87719315 18.11435364 34.62938629 18.11465454 35.40437317 C18.11327459 37.86085029 18.09777727 40.31701416 18.08203125 42.7734375 C18.07829636 44.48836095 18.07545164 46.20328654 18.07345581 47.91821289 C18.06585684 52.40954587 18.04624084 56.9007474 18.02404785 61.39202881 C18.00350853 65.98399071 17.99443687 70.57597405 17.984375 75.16796875 C17.96299107 84.16152508 17.92783979 93.15494974 17.88671875 102.1484375 C8.31671875 102.1484375 -1.25328125 102.1484375 -11.11328125 102.1484375 C-11.07847656 97.58386719 -11.04367187 93.01929688 -11.0078125 88.31640625 C-10.99246263 85.40428388 -10.97801933 82.49221222 -10.96679688 79.58007812 C-10.94894496 74.96970101 -10.92795208 70.35950463 -10.88696289 65.74926758 C-10.85408421 62.02746427 -10.836369 58.30585509 -10.82864952 54.58391762 C-10.82315664 53.17231508 -10.81243222 51.76072175 -10.79609108 50.34920311 C-10.52201871 36.17276615 -10.52201871 36.17276615 -16.11328125 23.5234375 C-22.18294695 20.74150739 -28.58344121 20.3991114 -34.98828125 22.2734375 C-39.84087861 24.18322537 -42.96282468 26.90504718 -45.36328125 31.5859375 C-46.81427904 36.54351329 -47.24504217 41.37170166 -47.31860352 46.52099609 C-47.33854874 47.76182953 -47.35849396 49.00266296 -47.37904358 50.28109741 C-47.39602246 51.61968871 -47.41290146 52.95828127 -47.4296875 54.296875 C-47.45028303 55.67836085 -47.47128015 57.05984077 -47.49266052 58.4413147 C-47.54761303 62.06125048 -47.59713949 65.68124058 -47.64550781 69.30126953 C-47.69591986 73.00167616 -47.75145301 76.70200577 -47.80664062 80.40234375 C-47.91437417 87.65098187 -48.01360534 94.89966619 -48.11328125 102.1484375 C-57.35328125 102.1484375 -66.59328125 102.1484375 -76.11328125 102.1484375 C-76.11328125 68.1584375 -76.11328125 34.1684375 -76.11328125 -0.8515625 C-67.20328125 -0.8515625 -58.29328125 -0.8515625 -49.11328125 -0.8515625 C-48.78328125 3.1084375 -48.45328125 7.0684375 -48.11328125 11.1484375 C-47.20578125 9.9521875 -46.29828125 8.7559375 -45.36328125 7.5234375 C-34.50878714 -4.53234449 -14.57592704 -7.37955372 0 0 Z " fill="#FDFDFD" transform="translate(669.11328125,95.8515625)"/>
<path d="M0 0 C9.9 0 19.8 0 30 0 C30 45.87 30 91.74 30 139 C20.1 139 10.2 139 0 139 C0 93.13 0 47.26 0 0 Z " fill="#FEFEFE" transform="translate(847,59)"/>
<path d="M0 0 C1.32 0.33 2.64 0.66 4 1 C4.495 3.97 4.495 3.97 5 7 C5.66 6.01 6.32 5.02 7 4 C10 5 10 5 12 7 C12.23046875 9.05859375 12.23046875 9.05859375 12.1875 11.4375 C12.18105469 12.21996094 12.17460937 13.00242188 12.16796875 13.80859375 C12 16 12 16 11 19 C11.43975475 21.07731769 12.0756465 23.04107309 12.72265625 25.0625 C13 27 13 27 11 30 C11.804375 30.433125 12.60875 30.86625 13.4375 31.3125 C16 33 16 33 17 36 C18.65 36.33 20.3 36.66 22 37 C22 36.01 22 35.02 22 34 C22.66 34 23.32 34 24 34 C24.99 36.475 24.99 36.475 26 39 C26.66 39 27.32 39 28 39 C28 39.66 28 40.32 28 41 C29.32 41 30.64 41 32 41 C32 40.34 32 39.68 32 39 C32.66 39 33.32 39 34 39 C33.49396008 36.83125748 33.00016187 35.00032373 32 33 C32.99 33 33.98 33 35 33 C34.34 32.67 33.68 32.34 33 32 C33.495 30.515 33.495 30.515 34 29 C31.36 28.67 28.72 28.34 26 28 C25.67 28.66 25.34 29.32 25 30 C24.01 29.01 24.01 29.01 23 28 C23.375 25.875 23.375 25.875 24 24 C24.495 24.99 24.495 24.99 25 26 C25.66 25.34 26.32 24.68 27 24 C27.99 24 28.98 24 30 24 C29.505 22.515 29.505 22.515 29 21 C28.34 20.67 27.68 20.34 27 20 C27.33 17.69 27.66 15.38 28 13 C28.99 13 29.98 13 31 13 C31 14.65 31 16.3 31 18 C31.33 16.68 31.66 15.36 32 14 C32.99 14 33.98 14 35 14 C35 13.34 35 12.68 35 12 C34.01 11.505 34.01 11.505 33 11 C33.66 9.68 34.32 8.36 35 7 C35.495 7.99 35.495 7.99 36 9 C36.33 7.35 36.66 5.7 37 4 C41.05431692 2.84162374 43.21812119 3.16308743 47 5 C47.185625 4.0409375 47.185625 4.0409375 47.375 3.0625 C47.58125 2.381875 47.7875 1.70125 48 1 C50 0 50 0 52.0625 0.5 C54 2 54 2 54.8125 4.8125 C55.34702224 10.52216942 54.55565842 16.31518689 54 22 C53.34 22 52.68 22 52 22 C51.896875 23.010625 51.79375 24.02125 51.6875 25.0625 C50.96295233 29.21218208 49.77730734 32.21356263 48 36 C47.34 36 46.68 36 46 36 C46 37.155 46 38.31 46 39.5 C45.19342479 45.44980156 41.6100731 48.47424882 37 52 C26.53791291 58.83965083 16.61451732 63.47568021 4 64 C3.26749023 64.03254883 2.53498047 64.06509766 1.78027344 64.09863281 C-8.4628096 64.49865854 -17.67635816 64.82461467 -27 60 C-27.97710937 59.51789063 -28.95421875 59.03578125 -29.9609375 58.5390625 C-34.63574791 56.12190331 -38.39453542 53.88152103 -42 50 C-41.505 49.505 -41.505 49.505 -41 49 C-41.7425 48.443125 -42.485 47.88625 -43.25 47.3125 C-45.9341211 45.05539816 -47.97240993 42.85364529 -50 40 C-50 39.34 -50 38.68 -50 38 C-47.525 37.505 -47.525 37.505 -45 37 C-45.66 36.67 -46.32 36.34 -47 36 C-47 35.34 -47 34.68 -47 34 C-48.32 33.67 -49.64 33.34 -51 33 C-50.67 31.68 -50.34 30.36 -50 29 C-50.99 28.67 -51.98 28.34 -53 28 C-52.34 28 -51.68 28 -51 28 C-51 27.34 -51 26.68 -51 26 C-50.01 26 -49.02 26 -48 26 C-48.27617533 24.05925139 -48.27617533 24.05925139 -49 22 C-49.99 21.34 -50.98 20.68 -52 20 C-52 19.01 -52 18.02 -52 17 C-53.32 16.34 -54.64 15.68 -56 15 C-55.34 15 -54.68 15 -54 15 C-53.67 13.35 -53.34 11.7 -53 10 C-50.49626313 12.17716249 -49.52930045 13.71833723 -49 17 C-49 17.66 -49 18.32 -49 19 C-48.01 18.67 -47.02 18.34 -46 18 C-46.33 17.34 -46.66 16.68 -47 16 C-46.34 16 -45.68 16 -45 16 C-44.67 15.01 -44.34 14.02 -44 13 C-44 14.32 -44 15.64 -44 17 C-41.36 17.33 -38.72 17.66 -36 18 C-36 18.66 -36 19.32 -36 20 C-38.31 20 -40.62 20 -43 20 C-44.12516085 21.83284443 -44.12516085 21.83284443 -45 24 C-44.33131686 27.11332248 -44.33131686 27.11332248 -41.9375 28.1875 C-41.298125 28.455625 -40.65875 28.72375 -40 29 C-40.33 28.67 -40.66 28.34 -41 28 C-42.17647059 24.35294118 -42.17647059 24.35294118 -41 22 C-39.35 22 -37.7 22 -36 22 C-37.32 22.33 -38.64 22.66 -40 23 C-39.67 23.66 -39.34 24.32 -39 25 C-37.68 24.67 -36.36 24.34 -35 24 C-35.99 25.32 -36.98 26.64 -38 28 C-36.68 28 -35.36 28 -34 28 C-33.34 27.34 -32.68 26.68 -32 26 C-29.875 26.375 -29.875 26.375 -28 27 C-28 27.99 -28 28.98 -28 30 C-27.67 30.33 -27.34 30.66 -27 31 C-26.34 30.01 -25.68 29.02 -25 28 C-24.34 28 -23.68 28 -23 28 C-23 29.32 -23 30.64 -23 32 C-22.01 32 -21.02 32 -20 32 C-20 33.33333333 -20 34.66666667 -20 36 C-16.62902617 37.49821059 -14.79557881 38 -11 38 C-10.67 37.01 -10.34 36.02 -10 35 C-9.34 35 -8.68 35 -8 35 C-7.505 34.01 -7.505 34.01 -7 33 C-6.01 33.99 -5.02 34.98 -4 36 C-4 35.34 -4 34.68 -4 34 C-4.66 34 -5.32 34 -6 34 C-6 33.01 -6 32.02 -6 31 C-6.66 30.67 -7.32 30.34 -8 30 C-7.360625 30.165 -6.72125 30.33 -6.0625 30.5 C-2.16669942 31.44443651 0.37890552 29.58011396 4 28 C3.34 28 2.68 28 2 28 C1.01 28 0.02 28 -1 28 C-1 27.34 -1 26.68 -1 26 C-1.66 26 -2.32 26 -3 26 C-3 25.34 -3 24.68 -3 24 C-2.01 24 -1.02 24 0 24 C0 22.68 0 21.36 0 20 C2.94082123 20.63017598 5.32031473 21.66015736 8 23 C8.66 23 9.32 23 10 23 C9.505 22.236875 9.01 21.47375 8.5 20.6875 C7 18 7 18 7 15 C7.66 15 8.32 15 9 15 C8.34 14.01 7.68 13.02 7 12 C6.01 12.33 5.02 12.66 4 13 C3.505 12.01 3.505 12.01 3 11 C2.67 11.99 2.34 12.98 2 14 C3.32 14 4.64 14 6 14 C6 15.32 6 16.64 6 18 C3.625 18.125 3.625 18.125 1 18 C0.34 17.34 -0.32 16.68 -1 16 C-0.96712417 13.27130593 -0.43602229 10.7033382 0 8 C0.66 8 1.32 8 2 8 C2 7.01 2 6.02 2 5 C1.01 4.67 0.02 4.34 -1 4 C-0.01 3.67 0.98 3.34 2 3 C1.34 2.67 0.68 2.34 0 2 C0 1.34 0 0.68 0 0 Z M-36 21 C-34 22 -34 22 -34 22 Z " fill="#EFC262" transform="translate(314,144)"/>
<path d="M0 0 C9.24 0 18.48 0 28 0 C28 33.99 28 67.98 28 103 C18.76 103 9.52 103 0 103 C0 69.01 0 35.02 0 0 Z " fill="#FDFDFD" transform="translate(540,95)"/>
<path d="M0 0 C1.32 0.33 2.64 0.66 4 1 C4.495 3.97 4.495 3.97 5 7 C5.66 6.01 6.32 5.02 7 4 C10 5 10 5 12 7 C12.23046875 9.05859375 12.23046875 9.05859375 12.1875 11.4375 C12.18105469 12.21996094 12.17460937 13.00242188 12.16796875 13.80859375 C12 16 12 16 11 19 C11.47742986 21.0772387 12.13968019 23.04354572 12.8203125 25.0625 C12.90925781 26.0215625 12.90925781 26.0215625 13 27 C12.29037109 27.69029297 12.29037109 27.69029297 11.56640625 28.39453125 C9.72432909 29.95223558 9.72432909 29.95223558 9.70703125 32.69921875 C9.75923828 34.17841797 9.75923828 34.17841797 9.8125 35.6875 C9.83957031 36.68136719 9.86664063 37.67523438 9.89453125 38.69921875 C9.92933594 39.45847656 9.96414063 40.21773437 10 41 C11.98 41.495 11.98 41.495 14 42 C14.495 45.96 14.495 45.96 15 50 C14.34 50 13.68 50 13 50 C12.67 48.35 12.34 46.7 12 45 C11.34 45 10.68 45 10 45 C10.33 45.99 10.66 46.98 11 48 C10.01 48.99 9.02 49.98 8 51 C8.020625 50.236875 8.04125 49.47375 8.0625 48.6875 C8.12942841 45.89814214 8.12942841 45.89814214 7 43 C7 42.01 7 41.02 7 40 C6.505 40.99 6.505 40.99 6 42 C5.34 42 4.68 42 4 42 C3.67 42.99 3.34 43.98 3 45 C3 44.34 3 43.68 3 43 C2.01 43 1.02 43 0 43 C0.66 44.98 1.32 46.96 2 49 C0.02 49.495 0.02 49.495 -2 50 C-2 49.34 -2 48.68 -2 48 C-2.99 47.505 -2.99 47.505 -4 47 C-4.33 47.33 -4.66 47.66 -5 48 C-6.33333333 46.66666667 -7.66666667 45.33333333 -9 44 C-9.66 44 -10.32 44 -11 44 C-11 44.66 -11 45.32 -11 46 C-10.01 46.33 -9.02 46.66 -8 47 C-8.99 48.32 -9.98 49.64 -11 51 C-11.54269531 50.77183594 -12.08539063 50.54367188 -12.64453125 50.30859375 C-13.71767578 49.87740234 -13.71767578 49.87740234 -14.8125 49.4375 C-15.52019531 49.14746094 -16.22789062 48.85742188 -16.95703125 48.55859375 C-19.1735067 47.74936976 -19.1735067 47.74936976 -22 49 C-22 49.66 -22 50.32 -22 51 C-22.66 51 -23.32 51 -24 51 C-23.67 51.99 -23.34 52.98 -23 54 C-23.66 54 -24.32 54 -25 54 C-25 51.36 -25 48.72 -25 46 C-29.81122847 47.52555966 -29.81122847 47.52555966 -33 51 C-31.68 51.33 -30.36 51.66 -29 52 C-29.99 52.495 -29.99 52.495 -31 53 C-31 53.99 -31 54.98 -31 56 C-35.51478398 55.46884894 -38.34666857 53.63379708 -42 51 C-41.67 50.34 -41.34 49.68 -41 49 C-41.7425 48.443125 -42.485 47.88625 -43.25 47.3125 C-45.9341211 45.05539816 -47.97240993 42.85364529 -50 40 C-50 39.34 -50 38.68 -50 38 C-47.525 37.505 -47.525 37.505 -45 37 C-45.66 36.67 -46.32 36.34 -47 36 C-47 35.34 -47 34.68 -47 34 C-48.32 33.67 -49.64 33.34 -51 33 C-50.67 31.68 -50.34 30.36 -50 29 C-50.99 28.67 -51.98 28.34 -53 28 C-52.34 28 -51.68 28 -51 28 C-51 27.34 -51 26.68 -51 26 C-50.01 26 -49.02 26 -48 26 C-48.27617533 24.05925139 -48.27617533 24.05925139 -49 22 C-49.99 21.34 -50.98 20.68 -52 20 C-52 19.01 -52 18.02 -52 17 C-53.32 16.34 -54.64 15.68 -56 15 C-55.34 15 -54.68 15 -54 15 C-53.67 13.35 -53.34 11.7 -53 10 C-50.49626313 12.17716249 -49.52930045 13.71833723 -49 17 C-49 17.66 -49 18.32 -49 19 C-48.01 18.67 -47.02 18.34 -46 18 C-46.33 17.34 -46.66 16.68 -47 16 C-46.34 16 -45.68 16 -45 16 C-44.67 15.01 -44.34 14.02 -44 13 C-44 14.32 -44 15.64 -44 17 C-41.36 17.33 -38.72 17.66 -36 18 C-36 18.66 -36 19.32 -36 20 C-38.31 20 -40.62 20 -43 20 C-44.12516085 21.83284443 -44.12516085 21.83284443 -45 24 C-44.33131686 27.11332248 -44.33131686 27.11332248 -41.9375 28.1875 C-41.298125 28.455625 -40.65875 28.72375 -40 29 C-40.33 28.67 -40.66 28.34 -41 28 C-42.17647059 24.35294118 -42.17647059 24.35294118 -41 22 C-39.35 22 -37.7 22 -36 22 C-37.32 22.33 -38.64 22.66 -40 23 C-39.67 23.66 -39.34 24.32 -39 25 C-37.68 24.67 -36.36 24.34 -35 24 C-35.99 25.32 -36.98 26.64 -38 28 C-36.68 28 -35.36 28 -34 28 C-33.34 27.34 -32.68 26.68 -32 26 C-29.875 26.375 -29.875 26.375 -28 27 C-28 27.99 -28 28.98 -28 30 C-27.67 30.33 -27.34 30.66 -27 31 C-26.34 30.01 -25.68 29.02 -25 28 C-24.34 28 -23.68 28 -23 28 C-23 29.32 -23 30.64 -23 32 C-22.01 32 -21.02 32 -20 32 C-20 33.33333333 -20 34.66666667 -20 36 C-16.62902617 37.49821059 -14.79557881 38 -11 38 C-10.67 37.01 -10.34 36.02 -10 35 C-9.34 35 -8.68 35 -8 35 C-7.505 34.01 -7.505 34.01 -7 33 C-6.01 33.99 -5.02 34.98 -4 36 C-4 35.34 -4 34.68 -4 34 C-4.66 34 -5.32 34 -6 34 C-6 33.01 -6 32.02 -6 31 C-6.66 30.67 -7.32 30.34 -8 30 C-7.360625 30.165 -6.72125 30.33 -6.0625 30.5 C-2.16669942 31.44443651 0.37890552 29.58011396 4 28 C3.34 28 2.68 28 2 28 C1.01 28 0.02 28 -1 28 C-1 27.34 -1 26.68 -1 26 C-1.66 26 -2.32 26 -3 26 C-3 25.34 -3 24.68 -3 24 C-2.01 24 -1.02 24 0 24 C0 22.68 0 21.36 0 20 C2.94082123 20.63017598 5.32031473 21.66015736 8 23 C8.66 23 9.32 23 10 23 C9.505 22.236875 9.01 21.47375 8.5 20.6875 C7 18 7 18 7 15 C7.66 15 8.32 15 9 15 C8.34 14.01 7.68 13.02 7 12 C6.01 12.33 5.02 12.66 4 13 C3.505 12.01 3.505 12.01 3 11 C2.67 11.99 2.34 12.98 2 14 C3.32 14 4.64 14 6 14 C6 15.32 6 16.64 6 18 C3.625 18.125 3.625 18.125 1 18 C0.34 17.34 -0.32 16.68 -1 16 C-0.96712417 13.27130593 -0.43602229 10.7033382 0 8 C0.66 8 1.32 8 2 8 C2 7.01 2 6.02 2 5 C1.01 4.67 0.02 4.34 -1 4 C-0.01 3.67 0.98 3.34 2 3 C1.34 2.67 0.68 2.34 0 2 C0 1.34 0 0.68 0 0 Z M-36 21 C-34 22 -34 22 -34 22 Z " fill="#EDBE57" transform="translate(314,144)"/>
<path d="M0 0 C1.65 0 3.3 0 5 0 C5 1.66666667 5 3.33333333 5 5 C5.66 4.67 6.32 4.34 7 4 C6.67 3.01 6.34 2.02 6 1 C6.99 0.67 7.98 0.34 9 0 C9.433125 0.495 9.86625 0.99 10.3125 1.5 C11.99740483 3.33218192 11.99740483 3.33218192 15 3 C15.9973772 4.72878714 16.9931053 6.45856894 17.9765625 8.1953125 C18.72307462 9.51168119 19.48272142 10.82062641 20.25 12.125 C21.19771055 14.49427637 21.14038535 16.47306373 21 19 C20.34 19 19.68 19 19 19 C19.66 20.98 20.32 22.96 21 25 C20.01 25.33 19.02 25.66 18 26 C17.505 27.485 17.505 27.485 17 29 C13.7 28.67 10.4 28.34 7 28 C7.33 29.65 7.66 31.3 8 33 C6.515 32.505 6.515 32.505 5 32 C5 33.32 5 34.64 5 36 C5 36.66 5 37.32 5 38 C4.01 38 3.02 38 2 38 C2.33 38.99 2.66 39.98 3 41 C2.34 41.66 1.68 42.32 1 43 C0.33333333 41 -0.33333333 39 -1 37 C-1.33 39.31 -1.66 41.62 -2 44 C-1.34 44 -0.68 44 0 44 C0.33 45.32 0.66 46.64 1 48 C0.38125 48.12375 -0.2375 48.2475 -0.875 48.375 C-3.19120832 48.87197356 -3.19120832 48.87197356 -5 51 C-4.00041617 52.23203548 -4.00041617 52.23203548 -2.00390625 52.02734375 C-0.37880479 51.96754002 1.24620002 51.90504815 2.87109375 51.83984375 C5 52 5 52 7 54 C6.01 54 5.02 54 4 54 C3.67 54.66 3.34 55.32 3 56 C4.485 56.495 4.485 56.495 6 57 C4.515 57.495 4.515 57.495 3 58 C3.66 58.99 4.32 59.98 5 61 C4.67 61.66 4.34 62.32 4 63 C3.34 63 2.68 63 2 63 C2.33 63.99 2.66 64.98 3 66 C-3.75 64.375 -3.75 64.375 -6 61 C-6 60.01 -6 59.02 -6 58 C-6.66 59.32 -7.32 60.64 -8 62 C-9.98 61.67 -11.96 61.34 -14 61 C-14.38063221 58.6739143 -14.71269945 56.33944736 -15 54 C-14.505 53.505 -14.505 53.505 -14 53 C-14.350625 52.401875 -14.70125 51.80375 -15.0625 51.1875 C-16 49 -16 49 -15 46 C-14.34 46 -13.68 46 -13 46 C-11.23537317 49.08809695 -11 50.23312136 -11 54 C-10.505 53.505 -10.505 53.505 -10 53 C-10.33 51.9275 -10.66 50.855 -11 49.75 C-12 46 -12 46 -12 42 C-12.66 42 -13.32 42 -14 42 C-14.66 43.32 -15.32 44.64 -16 46 C-16.66 46 -17.32 46 -18 46 C-18.20086443 42.28400809 -18.1519437 41.22791555 -16 38 C-15.01 38.33 -14.02 38.66 -13 39 C-13.33 37.35 -13.66 35.7 -14 34 C-15.485 34.495 -15.485 34.495 -17 35 C-17 33.35 -17 31.7 -17 30 C-17.66 30 -18.32 30 -19 30 C-19 29.34 -19 28.68 -19 28 C-18.01 28 -17.02 28 -16 28 C-16 27.34 -16 26.68 -16 26 C-16.99 26.33 -17.98 26.66 -19 27 C-18.505 25.515 -18.505 25.515 -18 24 C-16.68 24 -15.36 24 -14 24 C-13.67 24.99 -13.34 25.98 -13 27 C-12.67 25.35 -12.34 23.7 -12 22 C-13.32 22.33 -14.64 22.66 -16 23 C-16 22.01 -16 21.02 -16 20 C-15.01 20 -14.02 20 -13 20 C-13 19.34 -13 18.68 -13 18 C-12.01 18 -11.02 18 -10 18 C-10 17.34 -10 16.68 -10 16 C-11.32 16 -12.64 16 -14 16 C-14 16.66 -14 17.32 -14 18 C-14.99 18.66 -15.98 19.32 -17 20 C-17.66 20.99 -18.32 21.98 -19 23 C-18.67 21.02 -18.34 19.04 -18 17 C-17.34 17 -16.68 17 -16 17 C-16 16.34 -16 15.68 -16 15 C-14.35 14.67 -12.7 14.34 -11 14 C-11.33 12.02 -11.66 10.04 -12 8 C-10.68 7.34 -9.36 6.68 -8 6 C-8.66 7.98 -9.32 9.96 -10 12 C-9.34 12 -8.68 12 -8 12 C-7.90311779 17.44693314 -7.87137825 22.63904667 -9 28 C-9.99 28 -10.98 28 -12 28 C-12 28.99 -12 29.98 -12 31 C-12 31.33 -12 31.66 -12 32 C-11.34 31.01 -10.68 30.02 -10 29 C-9.34 29.33 -8.68 29.66 -8 30 C-8 31.65 -8 33.3 -8 35 C-6.515 34.505 -6.515 34.505 -5 34 C-5.66 34 -6.32 34 -7 34 C-6.979375 33.2575 -6.95875 32.515 -6.9375 31.75 C-6.87119033 29.08844281 -6.87119033 29.08844281 -7.625 27 C-8.16171211 24.13753539 -7.31077598 22.55601316 -6 20 C-4.375 18.1875 -4.375 18.1875 -3 17 C-4.98 17.99 -4.98 17.99 -7 19 C-7 17 -7 15 -7 13 C-7.32380126 11.66431979 -7.65657551 10.33076989 -8 9 C-5.3333581 7.66667905 -3.83319697 8.32897967 -1 9 C-1 9.66 -1 10.32 -1 11 C-1.66 11 -2.32 11 -3 11 C-2.67 11.66 -2.34 12.32 -2 13 C-1.38125 12.505 -0.7625 12.01 -0.125 11.5 C2 10 2 10 4 10 C2.88145414 6.27385847 2.88145414 6.27385847 0 4 C0.33 4.99 0.66 5.98 1 7 C0.01 6.67 -0.98 6.34 -2 6 C-1.49396008 3.83125748 -1.00016187 2.00032373 0 0 Z " fill="#F5CC5C" transform="translate(344,120)"/>
<path d="M0 0 C12.66599781 10.27297224 19.76192565 22.3356578 22.37451172 38.53369141 C23.13012989 49.84953433 20.01706355 62.9988413 14.43701172 72.78369141 C12.27685547 75.10791016 12.27685547 75.10791016 10.43701172 76.78369141 C10.76701172 74.80369141 11.09701172 72.82369141 11.43701172 70.78369141 C12.09701172 70.78369141 12.75701172 70.78369141 13.43701172 70.78369141 C13.54013672 69.95869141 13.64326172 69.13369141 13.74951172 68.28369141 C14.55347228 64.19080129 15.9005333 60.65828916 17.43701172 56.78369141 C18.09701172 56.78369141 18.75701172 56.78369141 19.43701172 56.78369141 C19.43701172 50.18369141 19.43701172 43.58369141 19.43701172 36.78369141 C17.95201172 36.28869141 17.95201172 36.28869141 16.43701172 35.78369141 C14.43701172 32.78369141 14.43701172 32.78369141 14.43701172 29.78369141 C15.09701172 29.78369141 15.75701172 29.78369141 16.43701172 29.78369141 C14.88428321 24.72906455 13.29370635 20.27278298 10.43701172 15.78369141 C10.43701172 15.12369141 10.43701172 14.46369141 10.43701172 13.78369141 C9.83888672 14.01056641 9.24076172 14.23744141 8.62451172 14.47119141 C7.90263672 14.57431641 7.18076172 14.67744141 6.43701172 14.78369141 C4.68701172 13.34619141 4.68701172 13.34619141 3.43701172 11.78369141 C3.43701172 12.77369141 3.43701172 13.76369141 3.43701172 14.78369141 C3.10701172 15.44369141 2.77701172 16.10369141 2.43701172 16.78369141 C1.77701172 16.45369141 1.11701172 16.12369141 0.43701172 15.78369141 C0.43701172 15.12369141 0.43701172 14.46369141 0.43701172 13.78369141 C-1.04798828 13.28869141 -1.04798828 13.28869141 -2.56298828 12.78369141 C2.18701172 9.78369141 2.18701172 9.78369141 4.43701172 9.78369141 C4.43701172 9.12369141 4.43701172 8.46369141 4.43701172 7.78369141 C2.78701172 8.44369141 1.13701172 9.10369141 -0.56298828 9.78369141 C-2.56298828 5.90869141 -2.56298828 5.90869141 -2.56298828 4.78369141 C-3.22298828 4.78369141 -3.88298828 4.78369141 -4.56298828 4.78369141 C-5.56298828 3.78369141 -6.56298828 2.78369141 -7.56298828 1.78369141 C-8.55298828 1.45369141 -9.54298828 1.12369141 -10.56298828 0.78369141 C-10.56298828 0.12369141 -10.56298828 -0.53630859 -10.56298828 -1.21630859 C-11.88298828 -1.21630859 -13.20298828 -1.21630859 -14.56298828 -1.21630859 C-13.57298828 -0.22630859 -13.57298828 -0.22630859 -12.56298828 0.78369141 C-12.93798828 3.90869141 -12.93798828 3.90869141 -13.56298828 6.78369141 C-12.90298828 7.11369141 -12.24298828 7.44369141 -11.56298828 7.78369141 C-11.89298828 9.76369141 -12.22298828 11.74369141 -12.56298828 13.78369141 C-14.54298828 14.11369141 -16.52298828 14.44369141 -18.56298828 14.78369141 C-18.56298828 14.12369141 -18.56298828 13.46369141 -18.56298828 12.78369141 C-17.24298828 12.78369141 -15.92298828 12.78369141 -14.56298828 12.78369141 C-15.22298828 12.45369141 -15.88298828 12.12369141 -16.56298828 11.78369141 C-16.53978516 11.16880859 -16.51658203 10.55392578 -16.49267578 9.92041016 C-16.47462891 9.11216797 -16.45658203 8.30392578 -16.43798828 7.47119141 C-16.41478516 6.67068359 -16.39158203 5.87017578 -16.36767578 5.04541016 C-16.40481506 2.49980564 -16.40481506 2.49980564 -18.56298828 -0.21630859 C-19.55298828 0.11369141 -20.54298828 0.44369141 -21.56298828 0.78369141 C-22.05798828 -0.20630859 -22.05798828 -0.20630859 -22.56298828 -1.21630859 C-24.55439388 -1.59764158 -26.55577905 -1.92956442 -28.56298828 -2.21630859 C-29.55298828 -2.71130859 -29.55298828 -2.71130859 -30.56298828 -3.21630859 C-30.56298828 -3.87630859 -30.56298828 -4.53630859 -30.56298828 -5.21630859 C-32.87298828 -4.55630859 -35.18298828 -3.89630859 -37.56298828 -3.21630859 C-37.56298828 -3.87630859 -37.56298828 -4.53630859 -37.56298828 -5.21630859 C-38.55298828 -4.88630859 -39.54298828 -4.55630859 -40.56298828 -4.21630859 C-41.14048828 -4.38130859 -41.71798828 -4.54630859 -42.31298828 -4.71630859 C-45.53164561 -5.43156578 -48.34569983 -4.77314698 -51.56298828 -4.21630859 C-50.57298828 -3.88630859 -49.58298828 -3.55630859 -48.56298828 -3.21630859 C-48.56298828 -2.55630859 -48.56298828 -1.89630859 -48.56298828 -1.21630859 C-51.31307075 0.9051836 -52.80114202 1.83563547 -56.31298828 1.59619141 C-58.56298828 0.78369141 -58.56298828 0.78369141 -59.56298828 -1.21630859 C-60.32611328 -0.88630859 -61.08923828 -0.55630859 -61.87548828 -0.21630859 C-64.56298828 0.78369141 -64.56298828 0.78369141 -67.56298828 0.78369141 C-67.23298828 1.77369141 -66.90298828 2.76369141 -66.56298828 3.78369141 C-66.52378013 5.78330705 -66.51855481 7.78418505 -66.56298828 9.78369141 C-65.24298828 10.11369141 -63.92298828 10.44369141 -62.56298828 10.78369141 C-62.89298828 13.09369141 -63.22298828 15.40369141 -63.56298828 17.78369141 C-64.55298828 17.78369141 -65.54298828 17.78369141 -66.56298828 17.78369141 C-66.56298828 17.12369141 -66.56298828 16.46369141 -66.56298828 15.78369141 C-67.55298828 15.45369141 -68.54298828 15.12369141 -69.56298828 14.78369141 C-70.05798828 14.10306641 -70.55298828 13.42244141 -71.06298828 12.72119141 C-71.55798828 12.08181641 -72.05298828 11.44244141 -72.56298828 10.78369141 C-73.55298828 10.78369141 -74.54298828 10.78369141 -75.56298828 10.78369141 C-75.89298828 11.44369141 -76.22298828 12.10369141 -76.56298828 12.78369141 C-77.16111328 12.88681641 -77.75923828 12.98994141 -78.37548828 13.09619141 C-81.53006434 14.08762959 -82.6797246 16.16057413 -84.56298828 18.78369141 C-85.55298828 17.79369141 -86.54298828 16.80369141 -87.56298828 15.78369141 C-87.81048828 16.71181641 -88.05798828 17.63994141 -88.31298828 18.59619141 C-89.77826165 23.75650196 -91.69153922 28.75984999 -93.56298828 33.78369141 C-93.89298828 33.78369141 -94.22298828 33.78369141 -94.56298828 33.78369141 C-95.89132858 24.29554643 -90.73917448 16.14261827 -85.32861328 8.71728516 C-64.29179443 -15.9975396 -25.58222938 -19.90794545 0 0 Z " fill="#FAD67C" transform="translate(348.56298828125,109.21630859375)"/>
<path d="M0 0 C0.99 0 1.98 0 3 0 C3 0.66 3 1.32 3 2 C3.56460937 1.83757812 4.12921875 1.67515625 4.7109375 1.5078125 C7.08808621 0.98045869 9.19343118 0.86686766 11.625 0.875 C12.40101563 0.87242187 13.17703125 0.86984375 13.9765625 0.8671875 C16 1 16 1 18 2 C17.67 2.66 17.34 3.32 17 4 C16.67 4 16.34 4 16 4 C15.67 4.66 15.34 5.32 15 6 C12.36 6 9.72 6 7 6 C7 6.99 7 7.98 7 9 C8.010625 9.12375 9.02125 9.2475 10.0625 9.375 C13.87937612 9.98085335 17.31500112 10.87193912 21 12 C21 12.99 21 13.98 21 15 C21.33 14.01 21.66 13.02 22 12 C22.99 12 23.98 12 25 12 C25 11.34 25 10.68 25 10 C24.01 9.67 23.02 9.34 22 9 C23.65 9 25.3 9 27 9 C27 9.66 27 10.32 27 11 C28.1446875 10.938125 28.1446875 10.938125 29.3125 10.875 C32 11 32 11 35 13 C35.6875 15.125 35.6875 15.125 36 17 C36 16.01 36 15.02 36 14 C43.875 14.875 43.875 14.875 45 16 C45.33 15.34 45.66 14.68 46 14 C46.99 14 47.98 14 49 14 C49 13.34 49 12.68 49 12 C49.99 12 50.98 12 52 12 C52 12.99 52 13.98 52 15 C50.35 15 48.7 15 47 15 C47 15.99 47 16.98 47 18 C47.66 18.33 48.32 18.66 49 19 C49 18.34 49 17.68 49 17 C51.97 16.67 54.94 16.34 58 16 C58 16.99 58 17.98 58 19 C59.65 19 61.3 19 63 19 C63 17.68 63 16.36 63 15 C61.68 15 60.36 15 59 15 C59.33 13.35 59.66 11.7 60 10 C60.495 11.98 60.495 11.98 61 14 C61.66 14 62.32 14 63 14 C63.33 13.34 63.66 12.68 64 12 C64.99 13.98 64.99 13.98 66 16 C65.34 16 64.68 16 64 16 C64.495 16.94875 64.99 17.8975 65.5 18.875 C67 22 67 22 67 24 C66.34 24 65.68 24 65 24 C64.505 25.485 64.505 25.485 64 27 C63.505 25.515 63.505 25.515 63 24 C59.99992729 22.29144978 59.99992729 22.29144978 57 21 C57 22.32 57 23.64 57 25 C56.01 25 55.02 25 54 25 C54 25.66 54 26.32 54 27 C54.66 27 55.32 27 56 27 C56 27.66 56 28.32 56 29 C56.99 29 57.98 29 59 29 C59.33 27.68 59.66 26.36 60 25 C60 25.99 60 26.98 60 28 C60.66 28.33 61.32 28.66 62 29 C61.01 29.66 60.02 30.32 59 31 C58.34 31.99 57.68 32.98 57 34 C57 33.01 57 32.02 57 31 C56.01 31.99 55.02 32.98 54 34 C52 33 52 33 51 32 C51 32.99 51 33.98 51 35 C51.66 35 52.32 35 53 35 C53 35.66 53 36.32 53 37 C52.443125 36.7525 51.88625 36.505 51.3125 36.25 C48.78752246 35.70300113 48.78752246 35.70300113 46.5625 37.9375 C45.716875 38.618125 44.87125 39.29875 44 40 C39.77824428 40.73880725 37.45800865 39.37120593 34 37 C34.99 36.67 35.98 36.34 37 36 C37 35.01 37 34.02 37 33 C36.01 33 35.02 33 34 33 C34 31.68 34 30.36 34 29 C33.54625 29.474375 33.0925 29.94875 32.625 30.4375 C31 32 31 32 29 33 C28 30 28 30 28 28 C27.01 27.67 26.02 27.34 25 27 C24.67 27.99 24.34 28.98 24 30 C22.4375 31.6875 22.4375 31.6875 21 33 C21 31.68 21 30.36 21 29 C20.34 29 19.68 29 19 29 C19 28.01 19 27.02 19 26 C18.01 26 17.02 26 16 26 C16 26.66 16 27.32 16 28 C16.66 28.33 17.32 28.66 18 29 C17.67 29.66 17.34 30.32 17 31 C14.69 30.01 12.38 29.02 10 28 C10.99 27.67 11.98 27.34 13 27 C12.34 26.67 11.68 26.34 11 26 C12.07401108 23.08482708 12.77810176 21.22189824 15 19 C15 19.66 15 20.32 15 21 C16.98 21 18.96 21 21 21 C21 20.34 21 19.68 21 19 C19.081875 18.7525 19.081875 18.7525 17.125 18.5 C16.40570313 18.4071875 15.68640625 18.314375 14.9453125 18.21875 C12.99501656 17.9627515 12.99501656 17.9627515 11 18 C11.66 18.66 12.32 19.32 13 20 C11.35 20 9.7 20 8 20 C7.896875 19.236875 7.79375 18.47375 7.6875 17.6875 C6.95635961 14.82940576 6.23048087 13.84257115 4 12 C3.95875 12.61875 3.9175 13.2375 3.875 13.875 C3.58625 14.57625 3.2975 15.2775 3 16 C-0.0625 17.25 -0.0625 17.25 -3 18 C-4.01243785 14.96268644 -4.00685724 13.59613977 -3.625 10.5 C-3.53476563 9.7265625 -3.44453125 8.953125 -3.3515625 8.15625 C-3 6 -3 6 -2 3 C-1.34 3 -0.68 3 0 3 C0 2.01 0 1.02 0 0 Z " fill="#F6CC63" transform="translate(257,143)"/>
<path d="M0 0 C0.66 0.66 1.32 1.32 2 2 C1.68834559 4.00349261 1.35236497 6.00326516 1 8 C1.36858988 10.76864953 1.36858988 10.76864953 2 13 C2.33 11.35 2.66 9.7 3 8 C3.66 8 4.32 8 5 8 C5.495 11.465 5.495 11.465 6 15 C7.670625 14.9690625 7.670625 14.9690625 9.375 14.9375 C13 15 13 15 15 16 C15 16.99 15 17.98 15 19 C15.66 19.33 16.32 19.66 17 20 C15.02 20.66 13.04 21.32 11 22 C11 22.99 11 23.98 11 25 C-3.09058692 28.32942138 -20.87772316 29.89475563 -34 23 C-34.65355469 22.69191406 -35.30710937 22.38382813 -35.98046875 22.06640625 C-37.3395601 21.41640604 -38.67469664 20.7163802 -40 20 C-39.34 19.01 -38.68 18.02 -38 17 C-39.32 16.34 -40.64 15.68 -42 15 C-41.34 14.67 -40.68 14.34 -40 14 C-39.67 13.01 -39.34 12.02 -39 11 C-35.4375 9.8125 -35.4375 9.8125 -32 9 C-32 9.99 -32 10.98 -32 12 C-31.34 12.33 -30.68 12.66 -30 13 C-30.66 13 -31.32 13 -32 13 C-32 14.32 -32 15.64 -32 17 C-31.67 16.01 -31.34 15.02 -31 14 C-30.34 14 -29.68 14 -29 14 C-29 13.34 -29 12.68 -29 12 C-27.4375 10.8125 -27.4375 10.8125 -25 10 C-21.25 11.375 -21.25 11.375 -18 13 C-17.34 12.01 -16.68 11.02 -16 10 C-16.66 9.67 -17.32 9.34 -18 9 C-18 8.34 -18 7.68 -18 7 C-17.34 7 -16.68 7 -16 7 C-16 6.34 -16 5.68 -16 5 C-14 6 -14 6 -12 8 C-11.34 7.67 -10.68 7.34 -10 7 C-9.505 8.98 -9.505 8.98 -9 11 C-9 10.34 -9 9.68 -9 9 C-8.34 9.33 -7.68 9.66 -7 10 C-7 10.66 -7 11.32 -7 12 C-7 10 -7 8 -7 6 C-5.02 5.67 -3.04 5.34 -1 5 C-0.67 3.35 -0.34 1.7 0 0 Z " fill="#E4AF4A" transform="translate(321,181)"/>
<path d="M0 0 C0 0.66 0 1.32 0 2 C0.66 2.66 1.32 3.32 2 4 C-1.44069624 6.29379749 -2.72290301 7 -7 7 C-7 6.01 -7 5.02 -7 4 C-7.99 4 -8.98 4 -10 4 C-10.33 4.66 -10.66 5.32 -11 6 C-10.6130131 3.75547595 -10.08035336 2.12945819 -8.875 0.1875 C-5.88367023 -1.70700885 -3.32900597 -0.69092577 0 0 Z M-15 3 C-14.01 3.33 -13.02 3.66 -12 4 C-11.3125 6.0625 -11.3125 6.0625 -11 8 C-11.99 8.66 -12.98 9.32 -14 10 C-12.02 10.66 -10.04 11.32 -8 12 C-7.67 11.34 -7.34 10.68 -7 10 C-5.35 10 -3.7 10 -2 10 C-2 10.66 -2 11.32 -2 12 C-1.34 11.67 -0.68 11.34 0 11 C-0.33 10.01 -0.66 9.02 -1 8 C-0.01 8 0.98 8 2 8 C2 9.32 2 10.64 2 12 C2.99 12 3.98 12 5 12 C4.67 10.68 4.34 9.36 4 8 C4.33 8.66 4.66 9.32 5 10 C6.65 10 8.3 10 10 10 C10 10.66 10 11.32 10 12 C10.66 12.33 11.32 12.66 12 13 C11.34 13.33 10.68 13.66 10 14 C10 14.66 10 15.32 10 16 C6.37471432 16.20140476 4.13498292 15.85776765 1 14 C1.33 15.32 1.66 16.64 2 18 C1.34 17.67 0.68 17.34 0 17 C0 16.01 0 15.02 0 14 C-0.66 14 -1.32 14 -2 14 C-2.33 14.99 -2.66 15.98 -3 17 C-3.66 17 -4.32 17 -5 17 C-5.66 18.32 -6.32 19.64 -7 21 C-5.68 21.33 -4.36 21.66 -3 22 C-4.41633336 22.16947579 -5.83308533 22.33545507 -7.25 22.5 C-8.03890625 22.5928125 -8.8278125 22.685625 -9.640625 22.78125 C-12 23 -12 23 -16 23 C-16 22.34 -16 21.68 -16 21 C-16.99 21 -17.98 21 -19 21 C-19 21.99 -19 22.98 -19 24 C-19.66 24.33 -20.32 24.66 -21 25 C-20.979375 26.03125 -20.95875 27.0625 -20.9375 28.125 C-20.99276661 31.55152969 -21.34550715 34.64572414 -22 38 C-21.05125 37.979375 -20.1025 37.95875 -19.125 37.9375 C-16 38 -16 38 -14 39 C-13.67 39.99 -13.34 40.98 -13 42 C-12.01 42.66 -11.02 43.32 -10 44 C-10 45.32 -10 46.64 -10 48 C-10.99 48 -11.98 48 -13 48 C-12.67 48.66 -12.34 49.32 -12 50 C-11 52 -11 52 -11 55 C-10.01 55.33 -9.02 55.66 -8 56 C-8.33 56.66 -8.66 57.32 -9 58 C-8.01 58.33 -7.02 58.66 -6 59 C-6 59.33 -6 59.66 -6 60 C-7.98 60 -9.96 60 -12 60 C-11.360625 60.598125 -10.72125 61.19625 -10.0625 61.8125 C-8 64 -8 64 -7 67 C-4.50240018 68.69882448 -4.50240018 68.69882448 -2 70 C-2.33 70.66 -2.66 71.32 -3 72 C-12.03771117 68.17635296 -17.0339019 58.81219913 -20.80859375 50.2734375 C-23.36312426 43.25476023 -24.32413 37.16299951 -24.25 29.75 C-24.25773438 28.96109375 -24.26546875 28.1721875 -24.2734375 27.359375 C-24.24965895 20.32092512 -24.24965895 20.32092512 -22 17 C-21.67 17 -21.34 17 -21 17 C-17.87716323 10.05216076 -17.87716323 10.05216076 -15 3 Z " fill="#F9D474" transform="translate(276,122)"/>
<path d="M0 0 C12.66599781 10.27297224 19.76192565 22.3356578 22.37451172 38.53369141 C23.13012989 49.84953433 20.01706355 62.9988413 14.43701172 72.78369141 C12.27685547 75.10791016 12.27685547 75.10791016 10.43701172 76.78369141 C10.76701172 74.80369141 11.09701172 72.82369141 11.43701172 70.78369141 C12.09701172 70.78369141 12.75701172 70.78369141 13.43701172 70.78369141 C13.54013672 69.95869141 13.64326172 69.13369141 13.74951172 68.28369141 C14.55347228 64.19080129 15.9005333 60.65828916 17.43701172 56.78369141 C18.09701172 56.78369141 18.75701172 56.78369141 19.43701172 56.78369141 C19.43701172 50.18369141 19.43701172 43.58369141 19.43701172 36.78369141 C17.95201172 36.28869141 17.95201172 36.28869141 16.43701172 35.78369141 C14.43701172 32.78369141 14.43701172 32.78369141 14.43701172 29.78369141 C15.09701172 29.78369141 15.75701172 29.78369141 16.43701172 29.78369141 C14.88428321 24.72906455 13.29370635 20.27278298 10.43701172 15.78369141 C10.43701172 15.12369141 10.43701172 14.46369141 10.43701172 13.78369141 C9.83888672 14.01056641 9.24076172 14.23744141 8.62451172 14.47119141 C7.90263672 14.57431641 7.18076172 14.67744141 6.43701172 14.78369141 C4.68701172 13.34619141 4.68701172 13.34619141 3.43701172 11.78369141 C3.43701172 12.77369141 3.43701172 13.76369141 3.43701172 14.78369141 C3.10701172 15.44369141 2.77701172 16.10369141 2.43701172 16.78369141 C1.77701172 16.45369141 1.11701172 16.12369141 0.43701172 15.78369141 C0.43701172 15.12369141 0.43701172 14.46369141 0.43701172 13.78369141 C-1.04798828 13.28869141 -1.04798828 13.28869141 -2.56298828 12.78369141 C2.18701172 9.78369141 2.18701172 9.78369141 4.43701172 9.78369141 C3.94201172 7.80369141 3.94201172 7.80369141 3.43701172 5.78369141 C2.77701172 5.78369141 2.11701172 5.78369141 1.43701172 5.78369141 C-0.68798828 3.90869141 -0.68798828 3.90869141 -2.56298828 1.78369141 C-2.56298828 1.12369141 -2.56298828 0.46369141 -2.56298828 -0.21630859 C-3.64580078 -0.64943359 -3.64580078 -0.64943359 -4.75048828 -1.09130859 C-6.50337657 -1.79246391 -8.25384537 -2.49973714 -10.00048828 -3.21630859 C-16.14416237 -5.61383995 -21.91212271 -7.21630859 -28.56298828 -7.21630859 C-29.05798828 -8.20630859 -29.05798828 -8.20630859 -29.56298828 -9.21630859 C-33.84846063 -10.25769731 -37.74887446 -10.25001063 -42.12548828 -9.90380859 C-43.21990234 -9.82517578 -44.31431641 -9.74654297 -45.44189453 -9.66552734 C-48.46883436 -9.22986016 -50.78432309 -8.45602076 -53.56298828 -7.21630859 C-56.56298828 -6.21630859 -56.56298828 -6.21630859 -58.93798828 -5.84130859 C-61.97655862 -5.11783947 -63.93722758 -3.90429762 -66.56298828 -2.21630859 C-67.78970689 -1.52444994 -69.01899049 -0.83712414 -70.25048828 -0.15380859 C-73.51764271 1.56943957 -73.51764271 1.56943957 -75.56298828 3.78369141 C-76.55298828 3.78369141 -77.54298828 3.78369141 -78.56298828 3.78369141 C-78.68673828 4.42306641 -78.81048828 5.06244141 -78.93798828 5.72119141 C-79.14423828 6.40181641 -79.35048828 7.08244141 -79.56298828 7.78369141 C-80.22298828 8.11369141 -80.88298828 8.44369141 -81.56298828 8.78369141 C-81.89298828 9.77369141 -82.22298828 10.76369141 -82.56298828 11.78369141 C-83.22298828 11.78369141 -83.88298828 11.78369141 -84.56298828 11.78369141 C-84.56298828 12.44369141 -84.56298828 13.10369141 -84.56298828 13.78369141 C-85.22298828 14.11369141 -85.88298828 14.44369141 -86.56298828 14.78369141 C-87.64485106 17.43917276 -88.62009099 20.07872813 -89.56298828 22.78369141 C-90.29027164 24.78437703 -91.01946939 26.78436767 -91.75048828 28.78369141 C-92.35505519 30.45021293 -92.95936329 32.11682848 -93.56298828 33.78369141 C-93.89298828 33.78369141 -94.22298828 33.78369141 -94.56298828 33.78369141 C-95.89132858 24.29554643 -90.73917448 16.14261827 -85.32861328 8.71728516 C-64.29179443 -15.9975396 -25.58222938 -19.90794545 0 0 Z " fill="#F6DD9B" transform="translate(348.56298828125,109.21630859375)"/>
<path d="M0 0 C0.66 0.99 1.32 1.98 2 3 C3.32 3 4.64 3 6 3 C6.495 4.98 6.495 4.98 7 7 C6.01 7.33 5.02 7.66 4 8 C4 8.66 4 9.32 4 10 C4.99 10.33 5.98 10.66 7 11 C6.67 11.99 6.34 12.98 6 14 C6.165 14.5775 6.33 15.155 6.5 15.75 C7.21060709 18.9477319 6.46821688 21.78100892 6 25 C6.495 26.485 6.495 26.485 7 28 C4.1043586 31.32462531 2.30731763 32.30151606 -2 33 C-2.33 33.66 -2.66 34.32 -3 35 C-1.515 34.505 -1.515 34.505 0 34 C0.33 35.65 0.66 37.3 1 39 C-0.65 38.67 -2.3 38.34 -4 38 C-2.68 38.99 -1.36 39.98 0 41 C-0.99 41.66 -1.98 42.32 -3 43 C-4.485 42.505 -4.485 42.505 -6 42 C-5.67 41.34 -5.34 40.68 -5 40 C-5.99 40.66 -6.98 41.32 -8 42 C-8.99 42.495 -8.99 42.495 -10 43 C-10.495 41.515 -10.495 41.515 -11 40 C-13.75662642 37.95222038 -15.71782403 37.04514816 -19.125 36.5 C-22 36 -22 36 -23.8125 34.6875 C-25.13901127 32.80245767 -25.61053706 31.25888508 -26 29 C-25.01 29.33 -24.02 29.66 -23 30 C-22.67 30.99 -22.34 31.98 -22 33 C-20.35 33.33 -18.7 33.66 -17 34 C-17 33.01 -17 32.02 -17 31 C-16.34 31 -15.68 31 -15 31 C-14.34 32.65 -13.68 34.3 -13 36 C-12.34 36 -11.68 36 -11 36 C-11 36.66 -11 37.32 -11 38 C-9.68 38 -8.36 38 -7 38 C-7 37.34 -7 36.68 -7 36 C-6.34 36 -5.68 36 -5 36 C-5.50603992 33.83125748 -5.99983813 32.00032373 -7 30 C-6.01 30 -5.02 30 -4 30 C-4.66 29.67 -5.32 29.34 -6 29 C-5.67 28.01 -5.34 27.02 -5 26 C-7.64 25.67 -10.28 25.34 -13 25 C-13.33 25.66 -13.66 26.32 -14 27 C-14.66 26.34 -15.32 25.68 -16 25 C-15.625 22.875 -15.625 22.875 -15 21 C-14.67 21.66 -14.34 22.32 -14 23 C-13.34 22.34 -12.68 21.68 -12 21 C-11.01 21 -10.02 21 -9 21 C-9.33 20.01 -9.66 19.02 -10 18 C-10.66 17.67 -11.32 17.34 -12 17 C-11.67 14.69 -11.34 12.38 -11 10 C-10.01 10 -9.02 10 -8 10 C-8 11.65 -8 13.3 -8 15 C-7.67 13.68 -7.34 12.36 -7 11 C-6.01 11 -5.02 11 -4 11 C-4 10.34 -4 9.68 -4 9 C-4.66 8.67 -5.32 8.34 -6 8 C-5.34 6.68 -4.68 5.36 -4 4 C-3.67 4.66 -3.34 5.32 -3 6 C-2.87625 5.195625 -2.7525 4.39125 -2.625 3.5625 C-2.315625 2.2940625 -2.315625 2.2940625 -2 1 C-1.34 0.67 -0.68 0.34 0 0 Z " fill="#EBBB4D" transform="translate(353,147)"/>
<path d="M0 0 C1.32 0.33 2.64 0.66 4 1 C4.33 2.98 4.66 4.96 5 7 C5.66 6.01 6.32 5.02 7 4 C10 5 10 5 12 7 C12.23046875 9.05859375 12.23046875 9.05859375 12.1875 11.4375 C12.18105469 12.21996094 12.17460937 13.00242188 12.16796875 13.80859375 C12 16 12 16 11 19 C11.47742986 21.0772387 12.13968019 23.04354572 12.8203125 25.0625 C12.87960937 25.701875 12.93890625 26.34125 13 27 C12.52691406 27.46019531 12.05382812 27.92039063 11.56640625 28.39453125 C9.72432909 29.95223558 9.72432909 29.95223558 9.70703125 32.69921875 C9.75923828 34.17841797 9.75923828 34.17841797 9.8125 35.6875 C9.83957031 36.68136719 9.86664063 37.67523438 9.89453125 38.69921875 C9.92933594 39.45847656 9.96414063 40.21773437 10 41 C11.32 41.33 12.64 41.66 14 42 C14.33 44.64 14.66 47.28 15 50 C14.34 50 13.68 50 13 50 C12.505 47.525 12.505 47.525 12 45 C11.34 45 10.68 45 10 45 C10.33 45.99 10.66 46.98 11 48 C10.01 48.99 9.02 49.98 8 51 C8.020625 50.236875 8.04125 49.47375 8.0625 48.6875 C8.12942841 45.89814214 8.12942841 45.89814214 7 43 C7.33333333 41.33333333 7.66666667 39.66666667 8 38 C7.505 36.515 7.505 36.515 7 35 C6.01 34.67 5.02 34.34 4 34 C4 34.99 4 35.98 4 37 C3.34 37 2.68 37 2 37 C2 37.66 2 38.32 2 39 C0.02 38.67 -1.96 38.34 -4 38 C-3.67 38.99 -3.34 39.98 -3 41 C-3.66 41 -4.32 41 -5 41 C-5 40.34 -5 39.68 -5 39 C-5.66 38.67 -6.32 38.34 -7 38 C-4.525 37.505 -4.525 37.505 -2 37 C-2.33 35.02 -2.66 33.04 -3 31 C-0.69 30.01 1.62 29.02 4 28 C3.34 28 2.68 28 2 28 C1.01 28 0.02 28 -1 28 C-1 27.34 -1 26.68 -1 26 C-1.66 26 -2.32 26 -3 26 C-3 25.34 -3 24.68 -3 24 C-2.01 24 -1.02 24 0 24 C0 22.68 0 21.36 0 20 C2.94082123 20.63017598 5.32031473 21.66015736 8 23 C8.66 23 9.32 23 10 23 C9.505 22.236875 9.01 21.47375 8.5 20.6875 C7 18 7 18 7 15 C7.66 15 8.32 15 9 15 C8.34 14.01 7.68 13.02 7 12 C6.01 12.33 5.02 12.66 4 13 C3.67 12.34 3.34 11.68 3 11 C2.67 11.99 2.34 12.98 2 14 C3.32 14 4.64 14 6 14 C6 15.32 6 16.64 6 18 C3.625 18.125 3.625 18.125 1 18 C0.34 17.34 -0.32 16.68 -1 16 C-0.96712417 13.27130593 -0.43602229 10.7033382 0 8 C0.66 8 1.32 8 2 8 C2 7.01 2 6.02 2 5 C1.01 4.67 0.02 4.34 -1 4 C-0.01 3.67 0.98 3.34 2 3 C1.34 2.67 0.68 2.34 0 2 C0 1.34 0 0.68 0 0 Z " fill="#F4C959" transform="translate(314,144)"/>
<path d="M0 0 C1 2 1 2 1 4 C1.66 3.34 2.32 2.68 3 2 C3.66 2.66 4.32 3.32 5 4 C4.01 4.66 3.02 5.32 2 6 C2.66 6.66 3.32 7.32 4 8 C4.33 8.66 4.66 9.32 5 10 C7.64 9.67 10.28 9.34 13 9 C13 9.66 13 10.32 13 11 C12.67 11.33 12.34 11.66 12 12 C12.99 12.33 13.98 12.66 15 13 C16.75 14.25 16.75 14.25 18 16 C17.505 18.475 17.505 18.475 17 21 C12.05 21 7.1 21 2 21 C2.99 20.67 3.98 20.34 5 20 C5.33 19.34 5.66 18.68 6 18 C6.99 18 7.98 18 9 18 C8.67 17.34 8.34 16.68 8 16 C7.34 16.33 6.68 16.66 6 17 C5.01 16.34 4.02 15.68 3 15 C2.67 15.66 2.34 16.32 2 17 C2.66 17.33 3.32 17.66 4 18 C-0.75 19.125 -0.75 19.125 -3 18 C-2.67 17.34 -2.34 16.68 -2 16 C-1.01 16.33 -0.02 16.66 1 17 C0.67 16.01 0.34 15.02 0 14 C-0.33 14.33 -0.66 14.66 -1 15 C-1.33 14.34 -1.66 13.68 -2 13 C-2.66 13 -3.32 13 -4 13 C-4 14.32 -4 15.64 -4 17 C-10.625 18.25 -10.625 18.25 -14 16 C-13.67 16.99 -13.34 17.98 -13 19 C-10.98491642 19.73323796 -10.98491642 19.73323796 -9 20 C-9.66 20 -10.32 20 -11 20 C-11.33 20.99 -11.66 21.98 -12 23 C-12 22.34 -12 21.68 -12 21 C-13.32 21 -14.64 21 -16 21 C-16 18.36 -16 15.72 -16 13 C-11.545 13.99 -11.545 13.99 -7 15 C-7 13.68 -7 12.36 -7 11 C-8.32 11 -9.64 11 -11 11 C-11 11.66 -11 12.32 -11 13 C-11.99 12.67 -12.98 12.34 -14 12 C-14 10.68 -14 9.36 -14 8 C-14.99 8.495 -14.99 8.495 -16 9 C-16 7.68 -16 6.36 -16 5 C-14.35 5 -12.7 5 -11 5 C-11 4.34 -11 3.68 -11 3 C-9.68 3.33 -8.36 3.66 -7 4 C-7 4.99 -7 5.98 -7 7 C-6.01 7.66 -5.02 8.32 -4 9 C-4 8.34 -4 7.68 -4 7 C-4.99 6.67 -5.98 6.34 -7 6 C-6.34 5.34 -5.68 4.68 -5 4 C-5 3.01 -5 2.02 -5 1 C-3.35 0.67 -1.7 0.34 0 0 Z " fill="#FCDC77" transform="translate(304,109)"/>
<path d="M0 0 C0.8971875 0.7425 0.8971875 0.7425 1.8125 1.5 C3.97029994 3.28276418 3.97029994 3.28276418 7 3 C7.9973772 4.72878714 8.9931053 6.45856894 9.9765625 8.1953125 C10.72307462 9.51168119 11.48272142 10.82062641 12.25 12.125 C13.19771055 14.49427637 13.14038535 16.47306373 13 19 C12.34 19 11.68 19 11 19 C11.66 20.98 12.32 22.96 13 25 C12.01 25.33 11.02 25.66 10 26 C9.67 26.99 9.34 27.98 9 29 C6.69 28.67 4.38 28.34 2 28 C2.020625 27.05125 2.04125 26.1025 2.0625 25.125 C2.22551826 22.09333717 2.22551826 22.09333717 1 20 C0.01 19.67 -0.98 19.34 -2 19 C-2 18.34 -2 17.68 -2 17 C-2.99 16.67 -3.98 16.34 -5 16 C-2 14 -2 14 2 14 C2 13.34 2 12.68 2 12 C0.02 12.33 -1.96 12.66 -4 13 C-4 12.34 -4 11.68 -4 11 C-2.35 10.67 -0.7 10.34 1 10 C0.01 9.34 -0.98 8.68 -2 8 C-1.814375 7.401875 -1.62875 6.80375 -1.4375 6.1875 C-0.77906313 3.83591238 -0.77906313 3.83591238 -2 1 C-1.34 0.67 -0.68 0.34 0 0 Z " fill="#F5CB6A" transform="translate(352,120)"/>
<path d="M0 0 C4 4.625 4 4.625 4 8 C5.65 8 7.3 8 9 8 C9 8.66 9 9.32 9 10 C9.556875 9.7525 10.11375 9.505 10.6875 9.25 C13 9 13 9 15.75 10.6875 C18 13 18 13 18 17 C18.66 17 19.32 17 20 17 C20.33 17.99 20.66 18.98 21 20 C16.89473684 25.70175439 16.89473684 25.70175439 13 27 C12.34 26.67 11.68 26.34 11 26 C11 25.01 11 24.02 11 23 C7.7 23 4.4 23 1 23 C1 22.01 1 21.02 1 20 C1.66 19.67 2.32 19.34 3 19 C2.67 16.69 2.34 14.38 2 12 C1.01 11.67 0.02 11.34 -1 11 C-1.33 7.7 -1.66 4.4 -2 1 C-1.34 0.67 -0.68 0.34 0 0 Z " fill="#F3C557" transform="translate(325,174)"/>
<path d="M0 0 C0.66 0 1.32 0 2 0 C1.67 1.32 1.34 2.64 1 4 C6.1693489 3.59443869 6.1693489 3.59443869 11 2 C11.33 3.32 11.66 4.64 12 6 C11.38125 6.12375 10.7625 6.2475 10.125 6.375 C7.80879168 6.87197356 7.80879168 6.87197356 6 9 C6.99958383 10.23203548 6.99958383 10.23203548 8.99609375 10.02734375 C10.62119521 9.96754002 12.24620002 9.90504815 13.87109375 9.83984375 C16 10 16 10 18 12 C17.01 12 16.02 12 15 12 C14.67 12.66 14.34 13.32 14 14 C14.99 14.33 15.98 14.66 17 15 C16.01 15.33 15.02 15.66 14 16 C14.66 16.99 15.32 17.98 16 19 C15.67 19.66 15.34 20.32 15 21 C14.34 21 13.68 21 13 21 C13.33 21.99 13.66 22.98 14 24 C7.25 22.375 7.25 22.375 5 19 C5 18.01 5 17.02 5 16 C4.34 17.32 3.68 18.64 3 20 C1.02 19.67 -0.96 19.34 -3 19 C-3.38063221 16.6739143 -3.71269945 14.33944736 -4 12 C-3.67 11.67 -3.34 11.34 -3 11 C-3.350625 10.401875 -3.70125 9.80375 -4.0625 9.1875 C-5 7 -5 7 -4 4 C-3.34 4 -2.68 4 -2 4 C-0.23537317 7.08809695 0 8.23312136 0 12 C0.33 11.67 0.66 11.34 1 11 C0.56386755 8.67850332 -0.03751427 6.41642881 -0.625 4.12890625 C-1 2 -1 2 0 0 Z " fill="#F2C357" transform="translate(333,162)"/>
<path d="M0 0 C0.33 0 0.66 0 1 0 C1 6.93 1 13.86 1 21 C2.98 21 4.96 21 7 21 C7.66 21.33 8.32 21.66 9 22 C9.33 22.99 9.66 23.98 10 25 C10.99 25.66 11.98 26.32 13 27 C13 28.32 13 29.64 13 31 C12.01 31 11.02 31 10 31 C10.33 31.66 10.66 32.32 11 33 C12 35 12 35 12 38 C12.99 38.33 13.98 38.66 15 39 C14.67 39.66 14.34 40.32 14 41 C14.99 41.33 15.98 41.66 17 42 C17 42.33 17 42.66 17 43 C15.02 43 13.04 43 11 43 C11.639375 43.598125 12.27875 44.19625 12.9375 44.8125 C15 47 15 47 16 50 C18.49759982 51.69882448 18.49759982 51.69882448 21 53 C20.67 53.66 20.34 54.32 20 55 C10.96228883 51.17635296 5.9660981 41.81219913 2.19140625 33.2734375 C-0.37246604 26.22909331 -1.30524239 20.1863613 -1.1875 12.75 C-1.18685547 11.96109375 -1.18621094 11.1721875 -1.18554688 10.359375 C-1.15784966 6.71565236 -0.98811356 3.52665367 0 0 Z " fill="#F2C66B" transform="translate(253,139)"/>
<path d="M0 0 C4.89998323 1.23534788 6.96908917 2.51395238 9.625 6.8125 C18.10653297 21.14854245 19.12477002 35.11034106 15.52978516 50.94189453 C13.72351539 57.95887801 11.40978357 64.07261752 6 69 C6.33 67.02 6.66 65.04 7 63 C7.66 63 8.32 63 9 63 C9.103125 62.175 9.20625 61.35 9.3125 60.5 C10.11646056 56.40710988 11.46352158 52.87459775 13 49 C13.66 49 14.32 49 15 49 C15 42.4 15 35.8 15 29 C14.01 28.67 13.02 28.34 12 28 C10 25 10 25 10 22 C10.66 22 11.32 22 12 22 C10.44727149 16.94537315 8.85669464 12.48909157 6 8 C6 7.34 6 6.68 6 6 C5.401875 6.226875 4.80375 6.45375 4.1875 6.6875 C3.465625 6.790625 2.74375 6.89375 2 7 C0.25 5.5625 0.25 5.5625 -1 4 C-1 4.99 -1 5.98 -1 7 C-1.33 7.66 -1.66 8.32 -2 9 C-2.66 8.67 -3.32 8.34 -4 8 C-4 7.34 -4 6.68 -4 6 C-4.99 5.67 -5.98 5.34 -7 5 C-2.25 2 -2.25 2 0 2 C0 1.34 0 0.68 0 0 Z " fill="#F1CD81" transform="translate(353,117)"/>
<path d="M0 0 C0.66 0 1.32 0 2 0 C2.33 2.31 2.66 4.62 3 7 C4.670625 6.9690625 4.670625 6.9690625 6.375 6.9375 C10 7 10 7 12 8 C12 8.99 12 9.98 12 11 C12.66 11.33 13.32 11.66 14 12 C12.02 12.66 10.04 13.32 8 14 C8 14.99 8 15.98 8 17 C6.37585622 17.19477739 4.75063577 17.38059458 3.125 17.5625 C2.22007812 17.66691406 1.31515625 17.77132812 0.3828125 17.87890625 C-2 18 -2 18 -4 17 C-4.66666667 15 -5.33333333 13 -6 11 C-6.66 10.67 -7.32 10.34 -8 10 C-8 9.34 -8 8.68 -8 8 C-6.2984375 7.4121875 -6.2984375 7.4121875 -4.5625 6.8125 C-0.79660949 5.41389118 -0.79660949 5.41389118 -0.0625 2.3125 C-0.041875 1.549375 -0.02125 0.78625 0 0 Z " fill="#E0A752" transform="translate(324,189)"/>
<path d="M0 0 C0 0.99 0 1.98 0 3 C0.66 3.33 1.32 3.66 2 4 C1.34 4 0.68 4 0 4 C0 5.32 0 6.64 0 8 C0.33 7.01 0.66 6.02 1 5 C1.66 5 2.32 5 3 5 C3 4.34 3 3.68 3 3 C4.75 1.875 4.75 1.875 7 1 C9.25 1.875 9.25 1.875 11 3 C11 3.99 11 4.98 11 6 C11.66 6.33 12.32 6.66 13 7 C8.25 8.125 8.25 8.125 6 7 C6 7.66 6 8.32 6 9 C9.11257569 9 11.10765685 8.82638376 14 8 C14 8.66 14 9.32 14 10 C14.66 10 15.32 10 16 10 C16 10.66 16 11.32 16 12 C14.68 11.67 13.36 11.34 12 11 C11.67 11.66 11.34 12.32 11 13 C8.525 12.505 8.525 12.505 6 12 C5.67 12.66 5.34 13.32 5 14 C5 13.01 5 12.02 5 11 C2.36 11.33 -0.28 11.66 -3 12 C-3 11.01 -3 10.02 -3 9 C-5.31 8.34 -7.62 7.68 -10 7 C-8.45809492 3.91618984 -7.55275574 2.2831188 -4.4375 0.6875 C-2 0 -2 0 0 0 Z M-6 9 C-5.34 9.66 -4.68 10.32 -4 11 C-5.32 10.67 -6.64 10.34 -8 10 C-7.34 9.67 -6.68 9.34 -6 9 Z M12 12 C14 13 14 13 14 13 Z " fill="#E0AB4C" transform="translate(289,190)"/>
<path d="M0 0 C0.66 0.99 1.32 1.98 2 3 C3.32 3 4.64 3 6 3 C6.33 4.32 6.66 5.64 7 7 C6.01 7.33 5.02 7.66 4 8 C4 8.66 4 9.32 4 10 C4.99 10.33 5.98 10.66 7 11 C6.67 11.99 6.34 12.98 6 14 C6.33 14.99 6.66 15.98 7 17 C5.68 17 4.36 17 3 17 C3 17.99 3 18.98 3 20 C0.08482708 18.92598892 -1.77810176 18.22189824 -4 16 C-4.66 16.33 -5.32 16.66 -6 17 C-5.67 15.68 -5.34 14.36 -5 13 C-5.66 13 -6.32 13 -7 13 C-7 12.34 -7 11.68 -7 11 C-6.01 11 -5.02 11 -4 11 C-4 10.34 -4 9.68 -4 9 C-4.66 8.67 -5.32 8.34 -6 8 C-5.34 6.68 -4.68 5.36 -4 4 C-3.67 4.66 -3.34 5.32 -3 6 C-2.814375 4.7934375 -2.814375 4.7934375 -2.625 3.5625 C-2.41875 2.716875 -2.2125 1.87125 -2 1 C-1.34 0.67 -0.68 0.34 0 0 Z " fill="#DCA72E" transform="translate(353,147)"/>
<path d="M0 0 C0.598125 0.185625 1.19625 0.37125 1.8125 0.5625 C4.16408762 1.22093687 4.16408762 1.22093687 7 0 C6.67 1.65 6.34 3.3 6 5 C5.01 5.33 4.02 5.66 3 6 C4.65 6 6.3 6 8 6 C8 4.68 8 3.36 8 2 C11 3 11 3 14 4 C14 4.66 14 5.32 14 6 C12.02 6.99 12.02 6.99 10 8 C10 8.99 10 9.98 10 11 C9.34 11 8.68 11 8 11 C8 12.65 8 14.3 8 16 C7.01 15.67 6.02 15.34 5 15 C5.66 15 6.32 15 7 15 C7 14.01 7 13.02 7 12 C6.34 12 5.68 12 5 12 C4.67 12.66 4.34 13.32 4 14 C1 14 1 14 -1 13 C-1 12.34 -1 11.68 -1 11 C-2.65 11 -4.3 11 -6 11 C-6 10.01 -6 9.02 -6 8 C-6.99 8 -7.98 8 -9 8 C-9 6.68 -9 5.36 -9 4 C-8.46375 4.165 -7.9275 4.33 -7.375 4.5 C-4.54113991 5.09660212 -1.8880194 5.0656368 1 5 C0.67 3.35 0.34 1.7 0 0 Z " fill="#F8D769" transform="translate(299,121)"/>
<path d="M0 0 C0 0.66 0 1.32 0 2 C-1.32 1.67 -2.64 1.34 -4 1 C-3.505 1.78375 -3.01 2.5675 -2.5 3.375 C-1 6 -1 6 -1 8 C-1.66 8 -2.32 8 -3 8 C-3.433125 9.11375 -3.433125 9.11375 -3.875 10.25 C-4.24625 11.1575 -4.6175 12.065 -5 13 C-5.21269531 13.63035156 -5.42539062 14.26070312 -5.64453125 14.91015625 C-7.66789203 18.02974708 -10.62867607 19.44700958 -13.8125 21.1875 C-14.42931641 21.54263672 -15.04613281 21.89777344 -15.68164062 22.26367188 C-19.08857891 24.17170214 -22.11568941 25.50428798 -26 26 C-26 25.34 -26 24.68 -26 24 C-25.31292969 23.69707031 -24.62585938 23.39414063 -23.91796875 23.08203125 C-17.0265447 20.07593373 -17.0265447 20.07593373 -13 14 C-13 13.34 -13 12.68 -13 12 C-13.66 11.67 -14.32 11.34 -15 11 C-14.67 10.01 -14.34 9.02 -14 8 C-12.68 8 -11.36 8 -10 8 C-9.67 8.33 -9.34 8.66 -9 9 C-8.67 8.67 -8.34 8.34 -8 8 C-8.66 7.34 -9.32 6.68 -10 6 C-7 6 -7 6 -4 7 C-4 6.34 -4 5.68 -4 5 C-4.99 4.67 -5.98 4.34 -7 4 C-7.33 3.67 -7.66 3.34 -8 3 C-7.67 2.01 -7.34 1.02 -7 0 C-2.25 -1.125 -2.25 -1.125 0 0 Z " fill="#EDBC60" transform="translate(358,179)"/>
<path d="M0 0 C0.33 0.66 0.66 1.32 1 2 C1.99 1.67 2.98 1.34 4 1 C4 1.99 4 2.98 4 4 C5.32 3.34 6.64 2.68 8 2 C8 1.34 8 0.68 8 0 C9.98 0.66 11.96 1.32 14 2 C12.71111971 4.8751945 11.46733017 7.0071564 9 9 C6.8125 9.6875 6.8125 9.6875 5 10 C5 9.01 5 8.02 5 7 C5.66 7 6.32 7 7 7 C7 6.34 7 5.68 7 5 C6.01 5.33 5.02 5.66 4 6 C3.01 6 2.02 6 1 6 C1.33 6.66 1.66 7.32 2 8 C2.66 7.67 3.32 7.34 4 7 C3.67 7.99 3.34 8.98 3 10 C2.34 10 1.68 10 1 10 C1.33 11.32 1.66 12.64 2 14 C3.32 13.34 4.64 12.68 6 12 C4.99939416 14.23212073 4.22320243 15.80255169 2.375 17.4375 C0.75788256 18.96918675 0.75788256 18.96918675 0.75 21.5 C0.92002433 24.12717443 0.92002433 24.12717443 2 27 C2.33 26.67 2.66 26.34 3 26 C3.625 27.875 3.625 27.875 4 30 C2 32 2 32 -1.125 32.125 C-2.07375 32.08375 -3.0225 32.0425 -4 32 C-2.68 31.67 -1.36 31.34 0 31 C-0.33 30.01 -0.66 29.02 -1 28 C-0.67 27.34 -0.34 26.68 0 26 C-0.66 26 -1.32 26 -2 26 C-2.66 26.99 -3.32 27.98 -4 29 C-4.99 28.67 -5.98 28.34 -7 28 C-6.01 27.67 -5.02 27.34 -4 27 C-4 26.01 -4 25.02 -4 24 C-3.01 24 -2.02 24 -1 24 C-1.185625 23.38125 -1.37125 22.7625 -1.5625 22.125 C-2 20 -2 20 -1 18 C-0.77377919 16.29636178 -0.59111527 14.58671299 -0.4375 12.875 C-0.35371094 11.96492187 -0.26992188 11.05484375 -0.18359375 10.1171875 C-0.12300781 9.41851562 -0.06242187 8.71984375 0 8 C-0.66 8 -1.32 8 -2 8 C-1.67 6.35 -1.34 4.7 -1 3 C-1.66 3 -2.32 3 -3 3 C-3 2.34 -3 1.68 -3 1 C-2.01 0.67 -1.02 0.34 0 0 Z " fill="#FCD670" transform="translate(336,124)"/>
<path d="M0 0 C1.65 0 3.3 0 5 0 C5.33 0.66 5.66 1.32 6 2 C7.98 2 9.96 2 12 2 C12.33 2.99 12.66 3.98 13 5 C13.99 5.33 14.98 5.66 16 6 C15.67 6.66 15.34 7.32 15 8 C14.01 8.33 13.02 8.66 12 9 C12.495 9.433125 12.99 9.86625 13.5 10.3125 C15 12 15 12 15 15 C16.65 15 18.3 15 20 15 C19.67 15.99 19.34 16.98 19 18 C14.48521602 17.46884894 11.65333143 15.63379708 8 13 C8.33 12.34 8.66 11.68 9 11 C8.2575 10.443125 7.515 9.88625 6.75 9.3125 C4.0658789 7.05539816 2.02759007 4.85364529 0 2 C0 1.34 0 0.68 0 0 Z " fill="#EBBB65" transform="translate(264,182)"/>
<path d="M0 0 C0.66 0 1.32 0 2 0 C2 1.32 2 2.64 2 4 C2.99 4 3.98 4 5 4 C5 4.99 5 5.98 5 7 C4.34 7.66 3.68 8.32 3 9 C2.83322718 12.58343976 2.83322718 12.58343976 3 16 C-2.29420292 15.16407322 -3.89861301 13.22916408 -7 9 C-6.34 9 -5.68 9 -5 9 C-5 8.34 -5 7.68 -5 7 C-5.66 6.67 -6.32 6.34 -7 6 C-6.67 5.34 -6.34 4.68 -6 4 C-6.66 3.67 -7.32 3.34 -8 3 C-6.576875 3.0928125 -6.576875 3.0928125 -5.125 3.1875 C-3.578125 3.0946875 -3.578125 3.0946875 -2 3 C-1.34 2.01 -0.68 1.02 0 0 Z " fill="#F0C356" transform="translate(289,172)"/>
<path d="M0 0 C0.8971875 0.7425 0.8971875 0.7425 1.8125 1.5 C3.97029994 3.28276418 3.97029994 3.28276418 7 3 C10 6.33333333 10 6.33333333 10 9 C9.34 9 8.68 9 8 9 C8.061875 10.423125 8.061875 10.423125 8.125 11.875 C8 15 8 15 6 17 C3.525 16.01 3.525 16.01 1 15 C1.33 14.01 1.66 13.02 2 12 C0.02 12.33 -1.96 12.66 -4 13 C-4 12.34 -4 11.68 -4 11 C-2.35 10.67 -0.7 10.34 1 10 C0.01 9.34 -0.98 8.68 -2 8 C-1.814375 7.401875 -1.62875 6.80375 -1.4375 6.1875 C-0.77906313 3.83591238 -0.77906313 3.83591238 -2 1 C-1.34 0.67 -0.68 0.34 0 0 Z " fill="#F5CF72" transform="translate(352,120)"/>
<path d="M0 0 C0.99 0.33 1.98 0.66 3 1 C4.125 5.75 4.125 5.75 3 8 C2.34 8 1.68 8 1 8 C1 10.31 1 12.62 1 15 C1.99 15.33 2.98 15.66 4 16 C1.50907189 17.24546405 0.58919267 16.7767578 -2 16 C-2.33 17.32 -2.66 18.64 -3 20 C-3.66 18.35 -4.32 16.7 -5 15 C-4.67 14.67 -4.34 14.34 -4 14 C-4.66 13.67 -5.32 13.34 -6 13 C-6 12.34 -6 11.68 -6 11 C-5.34 10.67 -4.68 10.34 -4 10 C-4.33 9.01 -4.66 8.02 -5 7 C-5.99 6.67 -6.98 6.34 -8 6 C-8.33 6.99 -8.66 7.98 -9 9 C-9 7.35 -9 5.7 -9 4 C-6.37886292 4 -4.49064888 4.31292445 -2 5 C-1.855625 4.360625 -1.71125 3.72125 -1.5625 3.0625 C-1 1 -1 1 0 0 Z " fill="#F0C057" transform="translate(363,144)"/>
<path d="M0 0 C0.33 0 0.66 0 1 0 C0.98428955 0.589021 0.9685791 1.17804199 0.95239258 1.78491211 C0.889308 4.50234027 0.85078009 7.21961361 0.8125 9.9375 C0.78736328 10.86369141 0.76222656 11.78988281 0.73632812 12.74414062 C0.67236657 18.82048821 1.09976411 24.53830222 4 30 C4.99 30.66 5.98 31.32 7 32 C6.505 32.495 6.505 32.495 6 33 C7.96857646 38.41358527 10.10999622 43.73999748 15 47 C15.33 47.99 15.66 48.98 16 50 C18.49759982 51.69882448 18.49759982 51.69882448 21 53 C20.67 53.66 20.34 54.32 20 55 C10.96228883 51.17635296 5.9660981 41.81219913 2.19140625 33.2734375 C-0.37246604 26.22909331 -1.30524239 20.1863613 -1.1875 12.75 C-1.18685547 11.96109375 -1.18621094 11.1721875 -1.18554688 10.359375 C-1.15784966 6.71565236 -0.98811356 3.52665367 0 0 Z " fill="#ECCB88" transform="translate(253,139)"/>
<path d="M0 0 C1.32 0.33 2.64 0.66 4 1 C4 1.99 4 2.98 4 4 C4.66 4 5.32 4 6 4 C6.33 4.99 6.66 5.98 7 7 C2.89473684 12.70175439 2.89473684 12.70175439 -1 14 C-1.66 13.67 -2.32 13.34 -3 13 C-4.26229508 8.52459016 -4.26229508 8.52459016 -3 6 C-3.66 6 -4.32 6 -5 6 C-4.67 4.35 -4.34 2.7 -4 1 C-2.02 1.495 -2.02 1.495 0 2 C0 1.34 0 0.68 0 0 Z " fill="#EBB850" transform="translate(339,187)"/>
<path d="M0 0 C0.33 0.66 0.66 1.32 1 2 C1.33 1.34 1.66 0.68 2 0 C3.65 0 5.3 0 7 0 C6.67 1.65 6.34 3.3 6 5 C8.31 5.66 10.62 6.32 13 7 C13 6.34 13 5.68 13 5 C12.34 5 11.68 5 11 5 C10.67 4.34 10.34 3.68 10 3 C9.34 2.67 8.68 2.34 8 2 C9 1 9 1 12.5625 0.9375 C13.696875 0.958125 14.83125 0.97875 16 1 C15.835 1.763125 15.67 2.52625 15.5 3.3125 C14.90854604 6.03596236 14.90854604 6.03596236 15 9 C13.35 9 11.7 9 10 9 C10 9.66 10 10.32 10 11 C9.34 11 8.68 11 8 11 C7.67 10.01 7.34 9.02 7 8 C6.67 9.32 6.34 10.64 6 12 C4.35 10.68 2.7 9.36 1 8 C1.66 6.68 2.32 5.36 3 4 C2.38125 4.185625 1.7625 4.37125 1.125 4.5625 C-1 5 -1 5 -3 4 C-2.67 3.01 -2.34 2.02 -2 1 C-1.34 0.67 -0.68 0.34 0 0 Z " fill="#EFC451" transform="translate(282,160)"/>
<path d="M0 0 C1.32 0 2.64 0 4 0 C4.33 1.65 4.66 3.3 5 5 C4.01 5.33 3.02 5.66 2 6 C1.01 6.495 1.01 6.495 0 7 C0 8.65 0 10.3 0 12 C0.61875 11.34 1.2375 10.68 1.875 10 C4 8 4 8 6 8 C7.19287411 11.87684087 8 14.91621923 8 19 C8.66 19.33 9.32 19.66 10 20 C9.01 20 8.02 20 7 20 C6.34 17.36 5.68 14.72 5 12 C4.34 12 3.68 12 3 12 C3.7018576 14.8509288 3.7018576 14.8509288 5 16 C5 17.32 5 18.64 5 20 C4.34 20 3.68 20 3 20 C3 20.66 3 21.32 3 22 C2.01 22.33 1.02 22.66 0 23 C-0.33 22.34 -0.66 21.68 -1 21 C-1.66 20.67 -2.32 20.34 -3 20 C-2.48566406 19.60296875 -1.97132813 19.2059375 -1.44140625 18.796875 C0.27084002 17.09034115 0.27084002 17.09034115 -0.21484375 14.765625 C-0.57255859 13.52039063 -0.57255859 13.52039063 -0.9375 12.25 C-2.11727973 7.37357712 -1.81427772 4.63648751 0 0 Z " fill="#F9CE68" transform="translate(326,154)"/>
<path d="M0 0 C0.66 0.33 1.32 0.66 2 1 C2 2.65 2 4.3 2 6 C2.99 5.34 3.98 4.68 5 4 C5 4.99 5 5.98 5 7 C5.99 7 6.98 7 8 7 C7.01 8.485 7.01 8.485 6 10 C6 10.66 6 11.32 6 12 C6.66 12 7.32 12 8 12 C8 12.66 8 13.32 8 14 C4.91111478 16.05925681 4.29064073 16.2390374 0.8125 16.125 C-0.445625 16.08375 -1.70375 16.0425 -3 16 C-3.33 16.66 -3.66 17.32 -4 18 C-4.66 17.34 -5.32 16.68 -6 16 C-5.625 13.875 -5.625 13.875 -5 12 C-4.67 12.66 -4.34 13.32 -4 14 C-3.34 13.34 -2.68 12.68 -2 12 C-1.01 12 -0.02 12 1 12 C0.67 11.01 0.34 10.02 0 9 C-0.66 8.67 -1.32 8.34 -2 8 C-1.125 1.125 -1.125 1.125 0 0 Z " fill="#EDC04B" transform="translate(343,156)"/>
<path d="M0 0 C2.4375 1.3125 2.4375 1.3125 3.375 3.1875 C3.4506712 5.76032067 2.75918051 7.13561446 1.4375 9.3125 C0.7775 9.3125 0.1175 9.3125 -0.5625 9.3125 C-0.2325 10.9625 0.0975 12.6125 0.4375 14.3125 C-0.5525 13.9825 -1.5425 13.6525 -2.5625 13.3125 C-3.2225 14.6325 -3.8825 15.9525 -4.5625 17.3125 C-5.1159764 15.23696352 -5.5625 13.46884036 -5.5625 11.3125 C-6.2225 11.9725 -6.8825 12.6325 -7.5625 13.3125 C-7.5625 11.9925 -7.5625 10.6725 -7.5625 9.3125 C-8.2225 9.3125 -8.8825 9.3125 -9.5625 9.3125 C-8.9025 7.9925 -8.2425 6.6725 -7.5625 5.3125 C-6.5725 5.3125 -5.5825 5.3125 -4.5625 5.3125 C-4.5625 5.6425 -4.5625 5.9725 -4.5625 6.3125 C-3.5725 5.9825 -2.5825 5.6525 -1.5625 5.3125 C-2.3388932 2.2379644 -2.3388932 2.2379644 -4.5625 0.3125 C-2.5625 -0.6875 -2.5625 -0.6875 0 0 Z " fill="#F0C34A" transform="translate(351.5625,138.6875)"/>
<path d="M0 0 C4.75 1.875 4.75 1.875 7 3 C7 2.01 7 1.02 7 0 C8.32 0.33 9.64 0.66 11 1 C10.67 2.98 10.34 4.96 10 7 C9.34 7 8.68 7 8 7 C7.67 7.99 7.34 8.98 7 10 C6.67 9.01 6.34 8.02 6 7 C5.01 7.495 5.01 7.495 4 8 C3.34444881 10.52733235 3.34444881 10.52733235 3 13 C1.35 12.67 -0.3 12.34 -2 12 C-1.33333333 10 -0.66666667 8 0 6 C0.66 6 1.32 6 2 6 C2 5.34 2 4.68 2 4 C1.34 4 0.68 4 0 4 C-0.33 3.01 -0.66 2.02 -1 1 C-0.67 0.67 -0.34 0.34 0 0 Z " fill="#E7B13D" transform="translate(349,164)"/>
<path d="M0 0 C3 1 3 1 4 2 C4.99 1.34 5.98 0.68 7 0 C9.13586678 3.20380017 9.23132175 4.01939967 9.125 7.6875 C9.10695313 8.49574219 9.08890625 9.30398437 9.0703125 10.13671875 C9.03550781 11.05904297 9.03550781 11.05904297 9 12 C8.29875 11.79375 7.5975 11.5875 6.875 11.375 C2.74426378 10.83620832 -0.33498309 12.16749154 -4 14 C-4 13.01 -4 12.02 -4 11 C-3.34 10.67 -2.68 10.34 -2 10 C-2.66 9.67 -3.32 9.34 -4 9 C-4 8.34 -4 7.68 -4 7 C-2.68 7 -1.36 7 0 7 C0 7.66 0 8.32 0 9 C0.66 8.34 1.32 7.68 2 7 C1.01 6.67 0.02 6.34 -1 6 C-1 5.34 -1 4.68 -1 4 C-0.34 4 0.32 4 1 4 C0.67 2.68 0.34 1.36 0 0 Z " fill="#F7D266" transform="translate(324,107)"/>
<path d="M0 0 C0.66 0 1.32 0 2 0 C2.94339106 5.7637317 2.96193806 10.52519461 1.875 16.25 C1.73956787 16.98436279 1.60413574 17.71872559 1.46459961 18.4753418 C-0.21159827 26.90966059 -2.4902682 35.07075384 -9 41 C-8.505 38.03 -8.505 38.03 -8 35 C-7.34 35 -6.68 35 -6 35 C-5.896875 34.175 -5.79375 33.35 -5.6875 32.5 C-4.88353944 28.40710988 -3.53647842 24.87459775 -2 21 C-1.34 21 -0.68 21 0 21 C0 14.07 0 7.14 0 0 Z " fill="#EBCF90" transform="translate(368,145)"/>
<path d="M0 0 C0.33 1.32 0.66 2.64 1 4 C1.66 4 2.32 4 3 4 C3.33 3.34 3.66 2.68 4 2 C4.66 3.32 5.32 4.64 6 6 C5.34 6 4.68 6 4 6 C4.495 6.94875 4.99 7.8975 5.5 8.875 C7 12 7 12 7 14 C6.34 14 5.68 14 5 14 C4.67 14.99 4.34 15.98 4 17 C3.67 16.01 3.34 15.02 3 14 C-0.00007271 12.29144978 -0.00007271 12.29144978 -3 11 C-3 12.32 -3 13.64 -3 15 C-3.99 15 -4.98 15 -6 15 C-6.33 15.66 -6.66 16.32 -7 17 C-7.66 16.34 -8.32 15.68 -9 15 C-7.68 14.34 -6.36 13.68 -5 13 C-5.66 12.67 -6.32 12.34 -7 12 C-7 11.34 -7 10.68 -7 10 C-6.34 10 -5.68 10 -5 10 C-4.34 8.68 -3.68 7.36 -3 6 C-2.67 6.99 -2.34 7.98 -2 9 C-0.35 9 1.3 9 3 9 C3 7.68 3 6.36 3 5 C1.68 5 0.36 5 -1 5 C-0.67 3.35 -0.34 1.7 0 0 Z " fill="#FACF66" transform="translate(317,153)"/>
<path d="M0 0 C3.40312738 1.05875074 6.01353231 2.00902154 9 4 C8.67 4.99 8.34 5.98 8 7 C8.33 7.99 8.66 8.98 9 10 C7.68 10 6.36 10 5 10 C5 10.99 5 11.98 5 13 C0.125 11.25 0.125 11.25 -1 9 C-0.34 9 0.32 9 1 9 C0.84402344 8.43410156 0.68804687 7.86820313 0.52734375 7.28515625 C0.33269531 6.55167969 0.13804687 5.81820312 -0.0625 5.0625 C-0.35833984 3.96615234 -0.35833984 3.96615234 -0.66015625 2.84765625 C-0.77230469 2.23792969 -0.88445312 1.62820312 -1 1 C-0.67 0.67 -0.34 0.34 0 0 Z " fill="#CF9438" transform="translate(351,154)"/>
<path d="M0 0 C2.0625 0.4375 2.0625 0.4375 4 1 C4 1.66 4 2.32 4 3 C3.195625 3.12375 2.39125 3.2475 1.5625 3.375 C0.2940625 3.684375 0.2940625 3.684375 -1 4 C-1.33 4.66 -1.66 5.32 -2 6 C-2.66 6 -3.32 6 -4 6 C-4.33 5.34 -4.66 4.68 -5 4 C-5 4.99 -5 5.98 -5 7 C-4.01 7.66 -3.02 8.32 -2 9 C-2.66 9 -3.32 9 -4 9 C-4 9.99 -4 10.98 -4 12 C-5.98 12.33 -7.96 12.66 -10 13 C-10 11.68 -10 10.36 -10 9 C-10.33 8.01 -10.66 7.02 -11 6 C-10.5625 3.8125 -10.5625 3.8125 -10 2 C-9.04287109 1.90912109 -9.04287109 1.90912109 -8.06640625 1.81640625 C-6.82697266 1.69072266 -6.82697266 1.69072266 -5.5625 1.5625 C-4.73878906 1.48128906 -3.91507812 1.40007812 -3.06640625 1.31640625 C-1.01337975 1.21069185 -1.01337975 1.21069185 0 0 Z " fill="#F0C753" transform="translate(306,168)"/>
<path d="M0 0 C0.66 0 1.32 0 2 0 C2.33 0.66 2.66 1.32 3 2 C4.546875 1.938125 4.546875 1.938125 6.125 1.875 C9.86829627 1.99575149 12.53734547 2.64872018 16 4 C16.33 3.01 16.66 2.02 17 1 C17.66 1.66 18.32 2.32 19 3 C18.625 5.625 18.625 5.625 18 8 C14.30783754 9.35843713 12.11471722 8.62041477 8.5 7.25 C7.5615625 6.90453125 6.623125 6.5590625 5.65625 6.203125 C3.11483341 5.05201278 1.14911004 3.7638922 -1 2 C-0.67 1.34 -0.34 0.68 0 0 Z " fill="#DB913A" transform="translate(284,199)"/>
<path d="M0 0 C1.98 0.99 1.98 0.99 4 2 C4 2.66 4 3.32 4 4 C6.64 4.66 9.28 5.32 12 6 C12 6.66 12 7.32 12 8 C10.68 7.67 9.36 7.34 8 7 C8.48484276 11.64586892 8.48484276 11.64586892 10 16 C7.69 16 5.38 16 3 16 C3.33 15.34 3.66 14.68 4 14 C3.71758117 11.6599583 3.38749213 9.32495277 3 7 C2.01 6.67 1.02 6.34 0 6 C0 4.02 0 2.04 0 0 Z " fill="#E8B74A" transform="translate(324,179)"/>
<path d="M0 0 C1.32 0.33 2.64 0.66 4 1 C4 1.99 4 2.98 4 4 C4.66 4.33 5.32 4.66 6 5 C4.02 5.66 2.04 6.32 0 7 C0 7.99 0 8.98 0 10 C-3.3 10.33 -6.6 10.66 -10 11 C-10 10.01 -10 9.02 -10 8 C-9.01 8.33 -8.02 8.66 -7 9 C-6.67 7.68 -6.34 6.36 -6 5 C-4.68 5.33 -3.36 5.66 -2 6 C-1.34 4.02 -0.68 2.04 0 0 Z " fill="#D8A246" transform="translate(332,196)"/>
<path d="M0 0 C1.32 0.66 2.64 1.32 4 2 C3.67 2.99 3.34 3.98 3 5 C2.34 5 1.68 5 1 5 C0.95875 6.19625 0.9175 7.3925 0.875 8.625 C0.28258199 13.74713726 -2.16868479 15.7393062 -6 19 C-6.66 18.67 -7.32 18.34 -8 18 C-6.35 15.36 -4.7 12.72 -3 10 C-3.66 9.34 -4.32 8.68 -5 8 C-5 7.01 -5 6.02 -5 5 C-3.68 5.33 -2.36 5.66 -1 6 C-1.33 5.01 -1.66 4.02 -2 3 C-1.34 2.01 -0.68 1.02 0 0 Z " fill="#F0C16A" transform="translate(359,175)"/>
<path d="M0 0 C0.66 0 1.32 0 2 0 C2 1.32 2 2.64 2 4 C2.99 4.33 3.98 4.66 5 5 C4.67 6.65 4.34 8.3 4 10 C3.34 10 2.68 10 2 10 C1.67 12.64 1.34 15.28 1 18 C-0.32 17.67 -1.64 17.34 -3 17 C-3.33 17.66 -3.66 18.32 -4 19 C-4.66 18.67 -5.32 18.34 -6 18 C-6 18.66 -6 19.32 -6 20 C-6.99 19.67 -7.98 19.34 -9 19 C-8.505 17.515 -8.505 17.515 -8 16 C-5.36 16 -2.72 16 0 16 C-0.185625 15.21625 -0.37125 14.4325 -0.5625 13.625 C-1.12543691 8.96066559 -0.59607604 4.64022271 0 0 Z " fill="#FDD46B" transform="translate(312,142)"/>
<path d="M0 0 C0.66 0 1.32 0 2 0 C3.41030314 6.73811499 2.66561666 13.19022959 2 20 C0 17 0 17 0 14 C-0.66 13.67 -1.32 13.34 -2 13 C-2 10.69 -2 8.38 -2 6 C-1.34 6 -0.68 6 0 6 C0 4.02 0 2.04 0 0 Z " fill="#F3C96E" transform="translate(366,146)"/>
<path d="M0 0 C0.99 0.33 1.98 0.66 3 1 C2.67 1.66 2.34 2.32 2 3 C2.33 3.33 2.66 3.66 3 4 C0.07284059 7.24623365 -2.62910463 9.00516159 -6.625 10.75 C-8.06746094 11.39195312 -8.06746094 11.39195312 -9.5390625 12.046875 C-12 13 -12 13 -14 13 C-14 12.34 -14 11.68 -14 11 C-12.98679687 10.56300781 -12.98679687 10.56300781 -11.953125 10.1171875 C-6.27122074 7.50613901 -2.87491008 5.61914243 0 0 Z " fill="#DFB062" transform="translate(346,192)"/>
<path d="M0 0 C0.33 1.32 0.66 2.64 1 4 C2.32 4.33 3.64 4.66 5 5 C5.33 7.64 5.66 10.28 6 13 C5.34 13 4.68 13 4 13 C3.67 11.35 3.34 9.7 3 8 C2.34 8 1.68 8 1 8 C1.33 8.99 1.66 9.98 2 11 C1.01 11.99 0.02 12.98 -1 14 C-0.979375 13.236875 -0.95875 12.47375 -0.9375 11.6875 C-0.87057159 8.89814214 -0.87057159 8.89814214 -2 6 C-1.0625 2.8125 -1.0625 2.8125 0 0 Z " fill="#F2BE58" transform="translate(323,181)"/>
<path d="M0 0 C0.66 0.33 1.32 0.66 2 1 C2 1.33 2 1.66 2 2 C2.65035814 3.34136367 3.3162955 4.67532254 4 6 C4.66 6 5.32 6 6 6 C6.33 7.32 6.66 8.64 7 10 C6.01 9.67 5.02 9.34 4 9 C3.34 10.32 2.68 11.64 2 13 C1.4465236 10.92446352 1 9.15634036 1 7 C0.34 7.66 -0.32 8.32 -1 9 C-1 7.68 -1 6.36 -1 5 C-1.66 5 -2.32 5 -3 5 C-1.125 1.125 -1.125 1.125 0 0 Z " fill="#F1C543" transform="translate(345,143)"/>
<path d="M0 0 C2 1 2 1 2 1 Z M-5 1 C-3.35 1 -1.7 1 0 1 C-1.32 1.33 -2.64 1.66 -4 2 C-3.67 2.66 -3.34 3.32 -3 4 C-1.68 3.67 -0.36 3.34 1 3 C0.01 4.32 -0.98 5.64 -2 7 C-1.34 7 -0.68 7 0 7 C-0.33 8.65 -0.66 10.3 -1 12 C-2.32 12 -3.64 12 -5 12 C-5.5625 10.0625 -5.5625 10.0625 -6 8 C-5.67 7.67 -5.34 7.34 -5 7 C-5.165 6.360625 -5.33 5.72125 -5.5 5.0625 C-6 3 -6 3 -5 1 Z " fill="#EBBD51" transform="translate(278,165)"/>
<path d="M0 0 C1.98 0.66 3.96 1.32 6 2 C6 3.32 6 4.64 6 6 C4.1875 6.6875 4.1875 6.6875 2 7 C0.25 5.5625 0.25 5.5625 -1 4 C-1 4.99 -1 5.98 -1 7 C-1.33 7.66 -1.66 8.32 -2 9 C-2.66 8.67 -3.32 8.34 -4 8 C-4 7.34 -4 6.68 -4 6 C-4.99 5.67 -5.98 5.34 -7 5 C-2.25 2 -2.25 2 0 2 C0 1.34 0 0.68 0 0 Z " fill="#F9D582" transform="translate(353,117)"/>
<path d="M0 0 C2.475 0.495 2.475 0.495 5 1 C5 1.66 5 2.32 5 3 C6.32 3.33 7.64 3.66 9 4 C8.67 4.99 8.34 5.98 8 7 C8 6.34 8 5.68 8 5 C7.34 5.66 6.68 6.32 6 7 C6.33 7.66 6.66 8.32 7 9 C5.68 9 4.36 9 3 9 C2.67 9.99 2.34 10.98 2 12 C1.37542727 8.56484998 1 5.50935186 1 2 C0.67 1.34 0.34 0.68 0 0 Z " fill="#F5CD64" transform="translate(333,107)"/>
<path d="M0 0 C0 2 0 2 -1.5 3.625 C-1.995 4.07875 -2.49 4.5325 -3 5 C-1.02 4.67 0.96 4.34 3 4 C3 4.66 3 5.32 3 6 C2.34 6 1.68 6 1 6 C1 6.66 1 7.32 1 8 C-5.75 7.25 -5.75 7.25 -8 5 C-6.68 4.34 -5.36 3.68 -4 3 C-4 2.34 -4 1.68 -4 1 C-2 0 -2 0 0 0 Z " fill="#F6D05F" transform="translate(295,146)"/>
<path d="M0 0 C0.99 0.33 1.98 0.66 3 1 C3.73282699 4.57253158 4 7.33506364 4 11 C0.7 11 -2.6 11 -6 11 C-5.67 10.01 -5.34 9.02 -5 8 C-3.35 8 -1.7 8 0 8 C0.33 6.68 0.66 5.36 1 4 C0.01 3.67 -0.98 3.34 -2 3 C-1.34 2.67 -0.68 2.34 0 2 C0 1.34 0 0.68 0 0 Z " fill="#F3C05C" transform="translate(332,186)"/>
<path d="M0 0 C0.66 0 1.32 0 2 0 C2.268125 0.61875 2.53625 1.2375 2.8125 1.875 C3.95556848 4.2995233 3.95556848 4.2995233 7 6 C7.6875 8.125 7.6875 8.125 8 10 C6.35 10 4.7 10 3 10 C3.33 9.01 3.66 8.02 4 7 C3.34 6.67 2.68 6.34 2 6 C2 6.66 2 7.32 2 8 C0 7 0 7 -2 5 C-1.46428571 1.46428571 -1.46428571 1.46428571 0 0 Z " fill="#F6D05E" transform="translate(296,139)"/>
<path d="M0 0 C-0.99 1.485 -0.99 1.485 -2 3 C-2.66 3 -3.32 3 -4 3 C-4 3.66 -4 4.32 -4 5 C-4.99 5.495 -4.99 5.495 -6 6 C-6 6.66 -6 7.32 -6 8 C-7.98 8.66 -9.96 9.32 -12 10 C-11.625 8.0625 -11.625 8.0625 -11 6 C-10.34 5.67 -9.68 5.34 -9 5 C-8.67 4.01 -8.34 3.02 -8 2 C-3.63934426 -1.21311475 -3.63934426 -1.21311475 0 0 Z " fill="#FBDB8B" transform="translate(278,111)"/>
<path d="M0 0 C2.475 0.99 2.475 0.99 5 2 C5 2.99 5 3.98 5 5 C6.65 5 8.3 5 10 5 C9.67 5.99 9.34 6.98 9 8 C4.48521602 7.46884894 1.65333143 5.63379708 -2 3 C-1.34 2.01 -0.68 1.02 0 0 Z " fill="#DFAF64" transform="translate(274,192)"/>
<path d="M0 0 C1.98 0.66 3.96 1.32 6 2 C5.67 2.66 5.34 3.32 5 4 C5.33 4.99 5.66 5.98 6 7 C5.34 7 4.68 7 4 7 C4 7.99 4 8.98 4 10 C3.34 10 2.68 10 2 10 C2 9.01 2 8.02 2 7 C1.34 7 0.68 7 0 7 C-0.38133299 5.0085944 -0.71325582 3.00720923 -1 1 C-0.67 0.67 -0.34 0.34 0 0 Z " fill="#C38B25" transform="translate(351,154)"/>
<path d="M0 0 C4.44006916 3.61783413 6.98488028 8.71836201 9 14 C8.67 14.66 8.34 15.32 8 16 C7.34 16 6.68 16 6 16 C5.18082358 14.27398621 4.36993984 12.5440353 3.5625 10.8125 C3.11003906 9.84957031 2.65757812 8.88664063 2.19140625 7.89453125 C1.09618578 5.23368414 0.45045204 2.83215245 0 0 Z " fill="#EFD398" transform="translate(359,121)"/>
<path d="M0 0 C1.32 0.33 2.64 0.66 4 1 C3.67 2.98 3.34 4.96 3 7 C2.34 7 1.68 7 1 7 C0.67 7.99 0.34 8.98 0 10 C-3 6.25 -3 6.25 -3 4 C-2.34 3.67 -1.68 3.34 -1 3 C-0.67 2.01 -0.34 1.02 0 0 Z " fill="#EDB235" transform="translate(356,164)"/>
<path d="M0 0 C0.268125 0.804375 0.53625 1.60875 0.8125 2.4375 C1.204375 3.283125 1.59625 4.12875 2 5 C2.99 5.33 3.98 5.66 5 6 C2.50907189 7.24546405 1.58919267 6.7767578 -1 6 C-1.33 7.32 -1.66 8.64 -2 10 C-2.66 8.35 -3.32 6.7 -4 5 C-3.67 4.67 -3.34 4.34 -3 4 C-3.66 3.67 -4.32 3.34 -5 3 C-5 2.34 -5 1.68 -5 1 C-3 0 -3 0 0 0 Z " fill="#E4B457" transform="translate(362,154)"/>
<path d="M0 0 C0.99 0 1.98 0 3 0 C3 0.66 3 1.32 3 2 C3.66 2 4.32 2 5 2 C4.34 3.65 3.68 5.3 3 7 C4.32 7 5.64 7 7 7 C6.67 6.01 6.34 5.02 6 4 C7.32 4.66 8.64 5.32 10 6 C7.6875 8.0625 7.6875 8.0625 5 10 C4.01 9.67 3.02 9.34 2 9 C0.875 4.25 0.875 4.25 2 2 C1.34 2 0.68 2 0 2 C0 1.34 0 0.68 0 0 Z " fill="#E3B04F" transform="translate(334,191)"/>
<path d="M0 0 C0.66 0.33 1.32 0.66 2 1 C1.67 1.99 1.34 2.98 1 4 C1.66 4 2.32 4 3 4 C3 3.34 3 2.68 3 2 C3.99 2 4.98 2 6 2 C5.67 3.65 5.34 5.3 5 7 C4.01 7.33 3.02 7.66 2 8 C2 7.01 2 6.02 2 5 C1.319375 5.7115625 1.319375 5.7115625 0.625 6.4375 C-1 8 -1 8 -3 9 C-3.33 8.01 -3.66 7.02 -4 6 C-3.525625 5.566875 -3.05125 5.13375 -2.5625 4.6875 C-0.76313043 2.97690387 -0.76313043 2.97690387 0 0 Z " fill="#F6CC60" transform="translate(289,167)"/>
<path d="M0 0 C1.258125 -0.020625 2.51625 -0.04125 3.8125 -0.0625 C4.52019531 -0.07410156 5.22789062 -0.08570313 5.95703125 -0.09765625 C8 0 8 0 11 1 C11 1.99 11 2.98 11 4 C7.04 4 3.08 4 -1 4 C-0.67 2.68 -0.34 1.36 0 0 Z " fill="#E2B036" transform="translate(301,204)"/>
<path d="M0 0 C2.00720923 0.28674418 4.0085944 0.61866701 6 1 C6 1.66 6 2.32 6 3 C5.34 3 4.68 3 4 3 C4 4.98 4 6.96 4 9 C2.02 9.99 2.02 9.99 0 11 C0 9 0 7 0 5 C-0.185625 4.34 -0.37125 3.68 -0.5625 3 C-0.706875 2.34 -0.85125 1.68 -1 1 C-0.67 0.67 -0.34 0.34 0 0 Z " fill="#F5CF67" transform="translate(337,128)"/>
<path d="M0 0 C2.16874252 0.50603992 3.99967627 0.99983813 6 2 C6 3.32 6 4.64 6 6 C3.69 5.67 1.38 5.34 -1 5 C-0.67 3.35 -0.34 1.7 0 0 Z " fill="#F4C75E" transform="translate(355,143)"/>
<path d="M0 0 C0.66 0.33 1.32 0.66 2 1 C2.625 4.0625 2.625 4.0625 3 7 C3.66 7 4.32 7 5 7 C5 7.66 5 8.32 5 9 C2.36 9 -0.28 9 -3 9 C-2.01 8.67 -1.02 8.34 0 8 C-0.185625 7.05125 -0.37125 6.1025 -0.5625 5.125 C-1 2 -1 2 0 0 Z " fill="#E6B83D" transform="translate(317,199)"/>
<path d="M0 0 C0.66 0 1.32 0 2 0 C2.33 0.66 2.66 1.32 3 2 C5.31 2 7.62 2 10 2 C9.34 3.32 8.68 4.64 8 6 C4.17902761 5.46930939 1.93828597 4.50298434 -1 2 C-0.67 1.34 -0.34 0.68 0 0 Z " fill="#D39E4D" transform="translate(284,199)"/>
<path d="M0 0 C4.455 0.99 4.455 0.99 9 2 C8.67 3.65 8.34 5.3 8 7 C6.68 6.67 5.36 6.34 4 6 C4 5.34 4 4.68 4 4 C2.68 3.67 1.36 3.34 0 3 C0 2.01 0 1.02 0 0 Z " fill="#F1C85B" transform="translate(269,153)"/>
<path d="M0 0 C0.33 0.66 0.66 1.32 1 2 C1.66 2 2.32 2 3 2 C3 2.66 3 3.32 3 4 C2.34 4 1.68 4 1 4 C1.33 5.32 1.66 6.64 2 8 C3.65 7.67 5.3 7.34 7 7 C7 7.66 7 8.32 7 9 C4.36 9 1.72 9 -1 9 C-0.67 6.03 -0.34 3.06 0 0 Z " fill="#FBCF69" transform="translate(335,157)"/>
<path d="M0 0 C0 1.65 0 3.3 0 5 C-4.75 4.25 -4.75 4.25 -7 2 C-4 0 -4 0 0 0 Z " fill="#F0C45E" transform="translate(292,183)"/>
<path d="M0 0 C0.66 0.33 1.32 0.66 2 1 C2 1.66 2 2.32 2 3 C1.01 3.495 1.01 3.495 0 4 C0.04125 5.0725 0.0825 6.145 0.125 7.25 C0.0074255 10.77723487 -0.34847907 12.061073 -2 15 C-2.05406122 13.06280622 -2.09282025 11.12518079 -2.125 9.1875 C-2.14820313 8.10855469 -2.17140625 7.02960938 -2.1953125 5.91796875 C-2 3 -2 3 0 0 Z " fill="#FCD780" transform="translate(255,143)"/>
<path d="M0 0 C1 3 1 3 0 6 C-1.5625 7.6875 -1.5625 7.6875 -3 9 C-3 7.68 -3 6.36 -3 5 C-3.66 5 -4.32 5 -5 5 C-4 2 -4 2 -1.9375 0.8125 C-1.298125 0.544375 -0.65875 0.27625 0 0 Z " fill="#F3C45B" transform="translate(281,167)"/>
<path d="M0 0 C0.66 0.99 1.32 1.98 2 3 C4.05925139 3.72382467 4.05925139 3.72382467 6 4 C5.67 4.99 5.34 5.98 5 7 C2.03 6.505 2.03 6.505 -1 6 C-1.33 4.35 -1.66 2.7 -2 1 C-1.34 0.67 -0.68 0.34 0 0 Z " fill="#F7C85D" transform="translate(331,175)"/>
<path d="M0 0 C1.32 0 2.64 0 4 0 C4.33 1.32 4.66 2.64 5 4 C3.02 4.99 3.02 4.99 1 6 C1 5.34 1 4.68 1 4 C0.34 3.67 -0.32 3.34 -1 3 C-0.67 2.01 -0.34 1.02 0 0 Z " fill="#DEAC41" transform="translate(355,150)"/>
<path d="M0 0 C0.33 0.66 0.66 1.32 1 2 C3.52733235 2.65555119 3.52733235 2.65555119 6 3 C6 3.66 6 4.32 6 5 C3.36 4.67 0.72 4.34 -2 4 C-1.34 2.68 -0.68 1.36 0 0 Z " fill="#C59241" transform="translate(293,202)"/>
<path d="M0 0 C2.46800047 1.15173355 4.04783565 2.04783565 6 4 C2.62182575 4.84454356 0.32534757 5.10844919 -3 4 C-2.505 3.525625 -2.01 3.05125 -1.5 2.5625 C0.11542197 1.24076302 0.11542197 1.24076302 0 0 Z " fill="#ECB754" transform="translate(296,193)"/>
<path d="M0 0 C0.33 1.32 0.66 2.64 1 4 C-0.98 4.33 -2.96 4.66 -5 5 C-5.33 4.01 -5.66 3.02 -6 2 C-2.25 0 -2.25 0 0 0 Z " fill="#E9C04C" transform="translate(303,182)"/>
<path d="M0 0 C0 0.66 0 1.32 0 2 C-1.32 1.67 -2.64 1.34 -4 1 C-4 2.32 -4 3.64 -4 5 C-7 4 -7 4 -8 3 C-7.67 2.01 -7.34 1.02 -7 0 C-2.25 -1.125 -2.25 -1.125 0 0 Z " fill="#F1C25A" transform="translate(358,179)"/>
<path d="M0 0 C0.66 0 1.32 0 2 0 C2.33 1.32 2.66 2.64 3 4 C0.03 3.505 0.03 3.505 -3 3 C-2.67 3.99 -2.34 4.98 -2 6 C-2.66 6 -3.32 6 -4 6 C-4 5.34 -4 4.68 -4 4 C-4.66 3.67 -5.32 3.34 -6 3 C-4.02 2.67 -2.04 2.34 0 2 C0 1.34 0 0.68 0 0 Z " fill="#F6CB5F" transform="translate(313,179)"/>
<path d="M0 0 C0.33 1.32 0.66 2.64 1 4 C-0.98 4.99 -0.98 4.99 -3 6 C-3.33 4.35 -3.66 2.7 -4 1 C-2.68 0.67 -1.36 0.34 0 0 Z " fill="#EABD47" transform="translate(336,173)"/>
<path d="M0 0 C0.33 0 0.66 0 1 0 C1 3.3 1 6.6 1 10 C0.01 10.495 0.01 10.495 -1 11 C-1 10.34 -1 9.68 -1 9 C-1.66 9 -2.32 9 -3 9 C-2.01 6.03 -1.02 3.06 0 0 Z " fill="#FBD168" transform="translate(342,151)"/>
<path d="M0 0 C0.33 0.66 0.66 1.32 1 2 C1.66 2 2.32 2 3 2 C3.33 3.32 3.66 4.64 4 6 C3.01 5.67 2.02 5.34 1 5 C0.34 6.32 -0.32 7.64 -1 9 C-2.0326802 6.21176345 -2.04509293 5.1322726 -1.0625 2.25 C-0.711875 1.5075 -0.36125 0.765 0 0 Z " fill="#E7B23D" transform="translate(348,147)"/>
<path d="M0 0 C0.33 0 0.66 0 1 0 C1 1.65 1 3.3 1 5 C-0.65 5 -2.3 5 -4 5 C-4 5.66 -4 6.32 -4 7 C-4.66 7 -5.32 7 -6 7 C-6 5.35 -6 3.7 -6 2 C-5.67 2.66 -5.34 3.32 -5 4 C-3.35 3.34 -1.7 2.68 0 2 C0 1.34 0 0.68 0 0 Z " fill="#FEDD73" transform="translate(328,127)"/>
<path d="M0 0 C2.31 0.33 4.62 0.66 7 1 C7 1.66 7 2.32 7 3 C3.7 3 0.4 3 -3 3 C-2.01 2.67 -1.02 2.34 0 2 C0 1.34 0 0.68 0 0 Z " fill="#FDDE83" transform="translate(309,127)"/>
<path d="M0 0 C0 3 0 3 -2.5 5.6875 C-3.325 6.450625 -4.15 7.21375 -5 8 C-5.66 7.67 -6.32 7.34 -7 7 C-3.375 1.125 -3.375 1.125 0 0 Z " fill="#E7C98A" transform="translate(358,186)"/>
<path d="M0 0 C2.64 0.33 5.28 0.66 8 1 C7.67 1.99 7.34 2.98 7 4 C4.69 3.67 2.38 3.34 0 3 C0 2.01 0 1.02 0 0 Z " fill="#F5C950" transform="translate(293,157)"/>
<path d="M0 0 C0.66 0 1.32 0 2 0 C2 0.66 2 1.32 2 2 C2.99 2 3.98 2 5 2 C4.67 3.65 4.34 5.3 4 7 C3.34 6.67 2.68 6.34 2 6 C2 5.34 2 4.68 2 4 C1.01 3.67 0.02 3.34 -1 3 C-0.67 2.01 -0.34 1.02 0 0 Z " fill="#FDDA73" transform="translate(296,128)"/>
<path d="M0 0 C0.66 0.66 1.32 1.32 2 2 C4.10820797 1.6814823 4.10820797 1.6814823 6 1 C6 2.32 6 3.64 6 5 C4.35 5 2.7 5 1 5 C0.67 3.35 0.34 1.7 0 0 Z " fill="#DB9E3F" transform="translate(311,202)"/>
<path d="M0 0 C0.33 1.32 0.66 2.64 1 4 C1.66 4 2.32 4 3 4 C3.33 3.34 3.66 2.68 4 2 C4.66 3.32 5.32 4.64 6 6 C3.69 5.67 1.38 5.34 -1 5 C-0.67 3.35 -0.34 1.7 0 0 Z " fill="#FBD071" transform="translate(317,153)"/>
<path d="M0 0 C2.97 0 5.94 0 9 0 C9.33 0.99 9.66 1.98 10 3 C6.7 3 3.4 3 0 3 C0 2.01 0 1.02 0 0 Z " fill="#EEB55B" transform="translate(326,194)"/>
<path d="M0 0 C0 0.99 0 1.98 0 3 C-0.66 3 -1.32 3 -2 3 C-1.67 3.99 -1.34 4.98 -1 6 C-1.66 6 -2.32 6 -3 6 C-3 5.34 -3 4.68 -3 4 C-3.99 4 -4.98 4 -6 4 C-6 3.34 -6 2.68 -6 2 C-2.25 0 -2.25 0 0 0 Z " fill="#E6B34D" transform="translate(289,190)"/>
<path d="M0 0 C0.66 0.66 1.32 1.32 2 2 C1.34 3.98 0.68 5.96 0 8 C-0.99 8 -1.98 8 -3 8 C-3 7.01 -3 6.02 -3 5 C-2.34 5 -1.68 5 -1 5 C-0.67 3.35 -0.34 1.7 0 0 Z " fill="#E9BA45" transform="translate(321,181)"/>
<path d="M0 0 C4.875 1.75 4.875 1.75 6 4 C4.02 4 2.04 4 0 4 C-0.33 3.01 -0.66 2.02 -1 1 C-0.67 0.67 -0.34 0.34 0 0 Z " fill="#E6AF23" transform="translate(349,164)"/>
<path d="M0 0 C0.99 0.33 1.98 0.66 3 1 C3 1.99 3 2.98 3 4 C2.01 4 1.02 4 0 4 C0 4.99 0 5.98 0 7 C-0.66 7 -1.32 7 -2 7 C-2.33 6.01 -2.66 5.02 -3 4 C-2.505 3.525625 -2.01 3.05125 -1.5 2.5625 C0.11542197 1.24076302 0.11542197 1.24076302 0 0 Z " fill="#F4CC66" transform="translate(332,144)"/>
<path d="M0 0 C0.33 0.66 0.66 1.32 1 2 C2.32 1.34 3.64 0.68 5 0 C4.375 1.9375 4.375 1.9375 3 4 C-0.125 4.75 -0.125 4.75 -3 5 C-2.01 3.35 -1.02 1.7 0 0 Z " fill="#FBD578" transform="translate(353,124)"/>
<path d="M0 0 C1.32 0.33 2.64 0.66 4 1 C3.67 2.98 3.34 4.96 3 7 C0 3.375 0 3.375 0 0 Z " fill="#EDB741" transform="translate(356,164)"/>
<path d="M0 0 C0.33 0.99 0.66 1.98 1 3 C0.34 3 -0.32 3 -1 3 C-1 3.99 -1 4.98 -1 6 C-1.66 6 -2.32 6 -3 6 C-3.33 4.35 -3.66 2.7 -4 1 C-2 0 -2 0 0 0 Z " fill="#B57623" transform="translate(356,158)"/>
<path d="M0 0 C0.66 0 1.32 0 2 0 C2 1.98 2 3.96 2 6 C0.68 6 -0.64 6 -2 6 C-1.34 4.02 -0.68 2.04 0 0 Z " fill="#F6D053" transform="translate(322,139)"/>
<path d="M0 0 C0.66 0.33 1.32 0.66 2 1 C1.67 1.99 1.34 2.98 1 4 C2.32 4.33 3.64 4.66 5 5 C2.69 5.33 0.38 5.66 -2 6 C-1.34 4.02 -0.68 2.04 0 0 Z " fill="#F5D06A" transform="translate(279,129)"/>
<path d="M0 0 C2.31 1.98 4.62 3.96 7 6 C5 7 5 7 2.9375 6.375 C1 5 1 5 0.25 2.375 C0.1675 1.59125 0.085 0.8075 0 0 Z " fill="#EAD19B" transform="translate(351,112)"/>
</svg>
